<svg width="34" height="34" viewBox="0 0 34 34" fill="none" xmlns="http://www.w3.org/2000/svg">
<g id="ion:camera-sharp">
<path id="Vector" d="M17 22.3125C19.3472 22.3125 21.25 20.4097 21.25 18.0625C21.25 15.7153 19.3472 13.8125 17 13.8125C14.6528 13.8125 12.75 15.7153 12.75 18.0625C12.75 20.4097 14.6528 22.3125 17 22.3125Z" fill="#B6B6B6"/>
<path id="Vector_2" d="M30.2812 9.5625H24.7695C24.5703 9.5625 24.3233 9.43367 24.1307 9.23047L22.3191 6.38828C21.582 5.3125 21.25 5.3125 20.0547 5.3125H13.9453C12.75 5.3125 12.3516 5.3125 11.6829 6.38895L9.8693 9.23047C9.72187 9.39117 9.51469 9.5625 9.29688 9.5625V8.5C9.29688 8.3591 9.2409 8.22398 9.14128 8.12435C9.04165 8.02472 8.90652 7.96875 8.76562 7.96875H6.10938C5.96848 7.96875 5.83335 8.02472 5.73372 8.12435C5.6341 8.22398 5.57812 8.3591 5.57812 8.5V9.5625H3.71875C3.29606 9.5625 2.89068 9.73041 2.5918 10.0293C2.29291 10.3282 2.125 10.7336 2.125 11.1562V27.0938C2.125 27.5164 2.29291 27.9218 2.5918 28.2207C2.89068 28.5196 3.29606 28.6875 3.71875 28.6875H30.2812C30.7039 28.6875 31.1093 28.5196 31.4082 28.2207C31.7071 27.9218 31.875 27.5164 31.875 27.0938V11.1562C31.875 10.7336 31.7071 10.3282 31.4082 10.0293C31.1093 9.73041 30.7039 9.5625 30.2812 9.5625ZM17.2995 24.4309C16.0146 24.4912 14.7414 24.1614 13.6474 23.4849C12.5533 22.8083 11.6895 21.8166 11.1695 20.64C10.6495 19.4635 10.4976 18.1571 10.7337 16.8926C10.9698 15.6281 11.583 14.4647 12.4926 13.5551C13.4022 12.6455 14.5656 12.0323 15.8301 11.7962C17.0946 11.5601 18.401 11.712 19.5775 12.232C20.7541 12.752 21.7458 13.6158 22.4224 14.7099C23.0989 15.8039 23.4287 17.0771 23.3684 18.362C23.2923 19.947 22.6284 21.4468 21.5064 22.5689C20.3843 23.6909 18.8845 24.3548 17.2995 24.4309Z" fill="#B6B6B6"/>
</g>
</svg>
