<svg width="4" height="19" viewBox="0 0 4 19" fill="none" xmlns="http://www.w3.org/2000/svg">
<path d="M0 9.40201C0 9.97328 0.210714 10.5211 0.585787 10.9251C0.96086 11.329 1.46957 11.556 2 11.556C2.53043 11.556 3.03914 11.329 3.41421 10.9251C3.78929 10.5211 4 9.97328 4 9.40201C4 8.83074 3.78929 8.28287 3.41421 7.87892C3.03914 7.47498 2.53043 7.24804 2 7.24804C1.46957 7.24804 0.96086 7.47498 0.585787 7.87892C0.210714 8.28287 0 8.83074 0 9.40201ZM0 2.9401C0 3.51137 0.210714 4.05924 0.585787 4.46319C0.96086 4.86714 1.46957 5.09407 2 5.09407C2.53043 5.09407 3.03914 4.86714 3.41421 4.46319C3.78929 4.05924 4 3.51137 4 2.9401C4 2.36883 3.78929 1.82096 3.41421 1.41702C3.03914 1.01307 2.53043 0.786133 2 0.786133C1.46957 0.786133 0.96086 1.01307 0.585787 1.41702C0.210714 1.82096 0 2.36883 0 2.9401ZM0 15.8639C0 16.4352 0.210714 16.9831 0.585787 17.387C0.96086 17.791 1.46957 18.0179 2 18.0179C2.53043 18.0179 3.03914 17.791 3.41421 17.387C3.78929 16.9831 4 16.4352 4 15.8639C4 15.2927 3.78929 14.7448 3.41421 14.3408C3.03914 13.9369 2.53043 13.7099 2 13.7099C1.46957 13.7099 0.96086 13.9369 0.585787 14.3408C0.210714 14.7448 0 15.2927 0 15.8639Z" fill="black"/>
</svg>
