<svg width="38" height="26" viewBox="0 0 38 26" fill="none" xmlns="http://www.w3.org/2000/svg">
<g clip-path="url(#clip0_14293_3970)">
<path d="M1.28125 0.5H36.7183V25.5H1.28125V0.5Z" fill="#181A93"/>
<path d="M0 0.5H38V8.83333H0V0.5Z" fill="#FFA44A"/>
<path d="M0 17.167H38V25.5003H0V17.167Z" fill="#1A9F0B"/>
<path d="M0 8.83301H38V17.1663H0V8.83301Z" fill="white"/>
<path d="M19.0021 15.5C20.4012 15.5 21.5354 14.3807 21.5354 13C21.5354 11.6193 20.4012 10.5 19.0021 10.5C17.603 10.5 16.4688 11.6193 16.4688 13C16.4688 14.3807 17.603 15.5 19.0021 15.5Z" fill="white"/>
<path d="M19.0028 16.3337C17.1435 16.3337 15.625 14.8351 15.625 13.0003C15.625 11.1655 17.1435 9.66699 19.0028 9.66699C20.862 9.66699 22.3806 11.1655 22.3806 13.0003C22.3806 14.8351 20.862 16.3337 19.0028 16.3337ZM19.0028 15.5003C20.3509 15.5003 21.5361 14.3307 21.5361 13.0003C21.5361 11.6699 20.3583 10.5003 19.0028 10.5003C17.6472 10.5003 16.4694 11.6699 16.4694 13.0003C16.4694 14.3307 17.6546 15.5003 19.0028 15.5003Z" fill="#181A93"/>
<path d="M19.0014 14.6663C19.9341 14.6663 20.6903 13.9201 20.6903 12.9997C20.6903 12.0792 19.9341 11.333 19.0014 11.333C18.0686 11.333 17.3125 12.0792 17.3125 12.9997C17.3125 13.9201 18.0686 14.6663 19.0014 14.6663Z" fill="#181A93"/>
</g>
<defs>
<clipPath id="clip0_14293_3970">
<rect width="38" height="25" fill="white" transform="translate(0 0.5)"/>
</clipPath>
</defs>
</svg>
