<svg width="23" height="20" viewBox="0 0 23 20" fill="none" xmlns="http://www.w3.org/2000/svg">
<path id="Vector" d="M11.9692 0.164212C11.8332 0.0577932 11.6656 0 11.4931 0C11.3206 0 11.153 0.0577932 11.017 0.164212L0 8.78362L0.952967 9.99287L2.3 8.93901V18.4615C2.30081 18.8693 2.46262 19.2601 2.75 19.5485C3.03738 19.8368 3.42692 19.9992 3.83333 20H19.1667C19.5731 19.9992 19.9626 19.8368 20.25 19.5485C20.5374 19.2601 20.6992 18.8693 20.7 18.4615V8.94593L22.047 9.9998L23 8.79054L11.9692 0.164212ZM13.0333 18.4615H9.96667V12.3075H13.0333V18.4615ZM14.5667 18.4615V12.3075C14.5663 11.8996 14.4046 11.5085 14.1171 11.2201C13.8296 10.9317 13.4399 10.7695 13.0333 10.769H9.96667C9.56013 10.7695 9.17035 10.9317 8.88288 11.2201C8.59542 11.5085 8.43374 11.8996 8.43333 12.3075V18.4615H3.83333V7.73975L11.5 1.74732L19.1667 7.74744V18.4615H14.5667Z" fill="#707070"/>
</svg>
