<svg width="12" height="12" viewBox="0 0 12 12" fill="none" xmlns="http://www.w3.org/2000/svg">
<g id="gridicons:location">
<path id="Vector" d="M9.5 4.5C9.5 4.04037 9.40947 3.58525 9.23358 3.16061C9.05769 2.73597 8.79988 2.35013 8.47487 2.02513C8.14987 1.70012 7.76403 1.44231 7.33939 1.26642C6.91475 1.09053 6.45963 1 6 1C5.54037 1 5.08525 1.09053 4.66061 1.26642C4.23597 1.44231 3.85013 1.70012 3.52513 2.02513C3.20012 2.35013 2.94231 2.73597 2.76642 3.16061C2.59053 3.58525 2.5 4.04037 2.5 4.5C2.5 5.1935 2.7045 5.8385 3.0525 6.3825H3.0485L6 11L8.9515 6.3825H8.948C9.30844 5.82079 9.50003 5.16741 9.5 4.5ZM6 6C5.60218 6 5.22064 5.84196 4.93934 5.56066C4.65804 5.27936 4.5 4.89782 4.5 4.5C4.5 4.10218 4.65804 3.72064 4.93934 3.43934C5.22064 3.15804 5.60218 3 6 3C6.39782 3 6.77936 3.15804 7.06066 3.43934C7.34196 3.72064 7.5 4.10218 7.5 4.5C7.5 4.89782 7.34196 5.27936 7.06066 5.56066C6.77936 5.84196 6.39782 6 6 6Z" fill="#B0FF76"/>
</g>
</svg>
