<svg width="29" height="29" viewBox="0 0 29 29" fill="none" xmlns="http://www.w3.org/2000/svg">
<g id="carbon:location-filled">
<path id="Vector" d="M14.5 1.8125C11.8571 1.81562 9.32331 2.8669 7.45448 4.73572C5.58566 6.60455 4.53438 9.13833 4.53126 11.7812C4.5281 13.941 5.23359 16.0422 6.53951 17.7625C6.53951 17.7625 6.81139 18.1205 6.85579 18.1721L14.5 27.1875L22.1479 18.1676C22.1877 18.1196 22.4605 17.7625 22.4605 17.7625L22.4614 17.7598C23.7667 16.0403 24.4719 13.9401 24.4688 11.7812C24.4656 9.13833 23.4144 6.60455 21.5455 4.73572C19.6767 2.8669 17.1429 1.81562 14.5 1.8125ZM14.5 15.4062C13.7831 15.4062 13.0822 15.1936 12.4861 14.7953C11.8899 14.397 11.4253 13.8309 11.1509 13.1685C10.8766 12.5061 10.8048 11.7772 10.9447 11.074C11.0845 10.3709 11.4298 9.72495 11.9367 9.21799C12.4437 8.71102 13.0896 8.36577 13.7928 8.2259C14.496 8.08603 15.2249 8.15782 15.8872 8.43219C16.5496 8.70655 17.1158 9.17118 17.5141 9.76731C17.9124 10.3634 18.125 11.0643 18.125 11.7812C18.1238 12.7423 17.7415 13.6636 17.0619 14.3432C16.3824 15.0227 15.4611 15.4051 14.5 15.4062Z" fill="#5AB344"/>
</g>
</svg>
