<svg width="16" height="18" viewBox="0 0 16 18" fill="none" xmlns="http://www.w3.org/2000/svg">
<path id="Vector" d="M8.00336 7.8489C7.36594 7.8489 6.81545 7.36721 6.81545 6.75173V1.74756C6.81545 1.15884 7.33697 0.650391 8.00336 0.650391C8.66974 0.650391 9.19126 1.13208 9.19126 1.74756V6.75173C9.19126 7.36721 8.64077 7.8489 8.00336 7.8489ZM4.43963 5.65456C4.72937 5.44047 4.90321 5.11935 4.90321 4.79823C4.90321 3.88838 3.74427 3.37994 2.96199 3.96866C0.962829 5.46724 -0.225079 7.82214 0.0356817 10.3911C0.412335 13.9502 3.57043 16.7868 7.42389 17.0544C12.0886 17.3755 16 13.9502 16 9.69535C16 7.36721 14.8411 5.30667 13.0157 3.9419C12.2624 3.37994 11.1035 3.88838 11.1035 4.79823C11.1035 5.14611 11.2773 5.44047 11.5671 5.65456C12.8419 6.61793 13.6532 8.06298 13.6532 9.69535C13.6532 12.746 10.7558 15.208 7.36594 14.8601C4.75834 14.5925 2.67226 12.639 2.4115 10.2306C2.20868 8.3841 3.04891 6.72497 4.43963 5.65456Z" fill="#E33629"/>
</svg>
