<svg width="23" height="23" viewBox="0 0 23 23" fill="none" xmlns="http://www.w3.org/2000/svg">
<g id="fluent:card-ui-24-regular">
<path id="Vector" d="M5.02865 3.83301C4.20261 3.83301 3.4104 4.16115 2.8263 4.74525C2.24221 5.32935 1.91406 6.12155 1.91406 6.94759V16.0518C1.91406 16.8778 2.24221 17.67 2.8263 18.2541C3.4104 18.8382 4.20261 19.1663 5.02865 19.1663H17.9661C18.3752 19.1663 18.7802 19.0858 19.158 18.9293C19.5359 18.7727 19.8793 18.5433 20.1685 18.2541C20.4577 17.9649 20.6871 17.6215 20.8436 17.2437C21.0002 16.8658 21.0807 16.4608 21.0807 16.0518V6.94759C21.0807 6.53858 21.0002 6.13357 20.8436 5.75569C20.6871 5.37781 20.4577 5.03446 20.1685 4.74525C19.8793 4.45603 19.5359 4.22661 19.158 4.07009C18.7802 3.91357 18.3752 3.83301 17.9661 3.83301H5.02865ZM3.35156 6.94759C3.35156 6.02184 4.1029 5.27051 5.02865 5.27051H17.9661C18.8919 5.27051 19.6432 6.02184 19.6432 6.94759V16.0518C19.6432 16.4965 19.4665 16.9231 19.152 17.2376C18.8375 17.5521 18.4109 17.7288 17.9661 17.7288H5.02865C4.58386 17.7288 4.15728 17.5521 3.84277 17.2376C3.52825 16.9231 3.35156 16.4965 3.35156 16.0518V6.94759ZM4.78906 7.42676C4.78906 7.23613 4.86479 7.05332 4.99958 6.91852C5.13437 6.78373 5.31719 6.70801 5.50781 6.70801H10.7786C10.9693 6.70801 11.1521 6.78373 11.2869 6.91852C11.4217 7.05332 11.4974 7.23613 11.4974 7.42676C11.4974 7.61738 11.4217 7.8002 11.2869 7.93499C11.1521 8.06978 10.9693 8.14551 10.7786 8.14551H5.50781C5.31719 8.14551 5.13437 8.06978 4.99958 7.93499C4.86479 7.8002 4.78906 7.61738 4.78906 7.42676ZM5.7474 12.458C5.49323 12.458 5.24947 12.559 5.06975 12.7387C4.89003 12.9184 4.78906 13.1622 4.78906 13.4163V15.333C4.78906 15.5872 4.89003 15.8309 5.06975 16.0107C5.24947 16.1904 5.49323 16.2913 5.7474 16.2913H12.4557C12.7099 16.2913 12.9537 16.1904 13.1334 16.0107C13.3131 15.8309 13.4141 15.5872 13.4141 15.333V13.4163C13.4141 13.1622 13.3131 12.9184 13.1334 12.7387C12.9537 12.559 12.7099 12.458 12.4557 12.458H5.7474ZM4.78906 9.82259C4.78906 9.63197 4.86479 9.44915 4.99958 9.31436C5.13437 9.17957 5.31719 9.10384 5.50781 9.10384H15.5703C15.7609 9.10384 15.9438 9.17957 16.0785 9.31436C16.2133 9.44915 16.2891 9.63197 16.2891 9.82259C16.2891 10.0132 16.2133 10.196 16.0785 10.3308C15.9438 10.4656 15.7609 10.5413 15.5703 10.5413H5.50781C5.31719 10.5413 5.13437 10.4656 4.99958 10.3308C4.86479 10.196 4.78906 10.0132 4.78906 9.82259Z" fill="#707070"/>
</g>
</svg>
