<svg width="17" height="17" viewBox="0 0 17 17" fill="none" xmlns="http://www.w3.org/2000/svg">
<g id="ic:round-cancel">
<path id="Vector" d="M8.4974 1.41666C4.58031 1.41666 1.41406 4.58291 1.41406 8.49999C1.41406 12.4171 4.58031 15.5833 8.4974 15.5833C12.4145 15.5833 15.5807 12.4171 15.5807 8.49999C15.5807 4.58291 12.4145 1.41666 8.4974 1.41666ZM11.5432 11.5458C11.4777 11.6115 11.3999 11.6636 11.3142 11.6991C11.2285 11.7347 11.1366 11.753 11.0439 11.753C10.9511 11.753 10.8592 11.7347 10.7735 11.6991C10.6878 11.6636 10.61 11.6115 10.5445 11.5458L8.4974 9.49874L6.45031 11.5458C6.31787 11.6783 6.13824 11.7527 5.95094 11.7527C5.76364 11.7527 5.584 11.6783 5.45156 11.5458C5.31912 11.4134 5.24471 11.2338 5.24471 11.0464C5.24471 10.9537 5.26298 10.8619 5.29847 10.7762C5.33396 10.6905 5.38598 10.6127 5.45156 10.5471L7.49865 8.49999L5.45156 6.45291C5.31912 6.32046 5.24471 6.14083 5.24471 5.95353C5.24471 5.76623 5.31912 5.5866 5.45156 5.45416C5.584 5.32171 5.76364 5.24731 5.95094 5.24731C6.13824 5.24731 6.31787 5.32171 6.45031 5.45416L8.4974 7.50124L10.5445 5.45416C10.6101 5.38858 10.6879 5.33656 10.7736 5.30107C10.8593 5.26558 10.9511 5.24731 11.0439 5.24731C11.1366 5.24731 11.2284 5.26558 11.3141 5.30107C11.3998 5.33656 11.4777 5.38858 11.5432 5.45416C11.6088 5.51974 11.6608 5.59759 11.6963 5.68327C11.7318 5.76895 11.7501 5.86079 11.7501 5.95353C11.7501 6.04627 11.7318 6.13811 11.6963 6.22379C11.6608 6.30947 11.6088 6.38733 11.5432 6.45291L9.49615 8.49999L11.5432 10.5471C11.8124 10.8162 11.8124 11.2696 11.5432 11.5458Z" fill="#E33629" fill-opacity="0.81"/>
</g>
</svg>
