<svg width="26" height="25" viewBox="0 0 26 25" fill="none" xmlns="http://www.w3.org/2000/svg">
<g id="iconamoon:settings-light">
<g id="Group">
<path id="Vector" d="M12.9948 14.5827C14.1914 14.5827 15.1615 13.6499 15.1615 12.4993C15.1615 11.3488 14.1914 10.416 12.9948 10.416C11.7982 10.416 10.8281 11.3488 10.8281 12.4993C10.8281 13.6499 11.7982 14.5827 12.9948 14.5827Z" stroke="#707070" stroke-width="1.5"/>
<path id="Vector_2" d="M5.84722 6.12474L6.25347 5.44765C6.09397 5.35918 5.90794 5.32543 5.72588 5.35192C5.54381 5.37842 5.37651 5.46359 5.25138 5.59349L5.84722 6.12474ZM3.68163 9.73307L2.90488 9.50182C2.85054 9.67104 2.85761 9.85299 2.92493 10.0178C2.99225 10.1827 3.11582 10.3207 3.27538 10.4091L3.68163 9.73307ZM3.67947 15.2654L3.27322 14.5883C3.11362 14.6769 2.99012 14.8152 2.92299 14.9802C2.85586 15.1453 2.84909 15.3274 2.9038 15.4966L3.67947 15.2654ZM5.84613 18.8737L5.2503 19.4049C5.37543 19.5348 5.54273 19.62 5.72479 19.6465C5.90686 19.673 6.09288 19.6392 6.25238 19.5508L5.84613 18.8737ZM10.8295 21.6393H10.017C10.017 22.0039 10.2802 22.3195 10.6496 22.4008L10.8295 21.6393ZM15.1639 21.6414L15.3448 22.4039C15.5244 22.3645 15.6847 22.2675 15.7994 22.129C15.9142 21.9904 15.9766 21.8185 15.9764 21.6414H15.165H15.1639ZM20.1483 18.8747L19.7421 19.5518C19.9016 19.6403 20.0876 19.674 20.2696 19.6476C20.4517 19.6211 20.619 19.5359 20.7441 19.406L20.1483 18.8747ZM22.3128 15.2643L23.0896 15.4956C23.1439 15.3264 23.1368 15.1444 23.0695 14.9796C23.0022 14.8147 22.8786 14.6767 22.719 14.5883L22.3128 15.2643ZM22.315 9.73203L22.7212 10.4091C22.8808 10.3204 23.0043 10.1822 23.0714 10.0172C23.1386 9.85212 23.1453 9.67002 23.0906 9.50078L22.315 9.73203ZM20.1483 6.12265L20.7441 5.59245C20.619 5.46255 20.4517 5.37738 20.2696 5.35088C20.0876 5.32439 19.9016 5.35814 19.7421 5.44661L20.1483 6.1237V6.12265ZM15.165 3.35911H15.9775C15.9774 3.18218 15.9149 3.0105 15.8002 2.87217C15.6854 2.73384 15.5253 2.63705 15.3459 2.59765L15.165 3.35911ZM10.8316 3.35703L10.6507 2.59453C10.4711 2.63397 10.3108 2.73091 10.1961 2.86945C10.0813 3.00799 10.0189 3.17992 10.0191 3.35703H10.8316ZM4.45838 9.96432C4.85268 8.73194 5.53066 7.60081 6.44197 6.65495L5.2503 5.59245C4.17341 6.71013 3.37213 8.04667 2.90597 9.50286L4.45838 9.96432ZM5.25788 16.7966C4.92328 16.2404 4.65439 15.6499 4.45622 15.0362L2.9038 15.4977C3.1378 16.2228 3.45539 16.9206 3.85063 17.5779L5.25788 16.7966ZM6.44305 18.3445C5.98925 17.8726 5.59172 17.3534 5.25788 16.7966L3.85063 17.5779C4.2449 18.2355 4.71437 18.8476 5.2503 19.4049L6.44305 18.3445ZM14.984 20.881C13.6768 21.1671 12.3194 21.1663 11.0125 20.8789L10.6507 22.4018C12.1957 22.7419 13.8004 22.7429 15.3459 22.4049L14.984 20.881ZM21.5382 15.0352C21.1439 16.2675 20.4659 17.3986 19.5546 18.3445L20.7463 19.407C21.8233 18.289 22.6235 16.9521 23.0896 15.4956L21.5382 15.0352ZM20.7387 8.20286C21.08 8.77265 21.3454 9.36224 21.5404 9.96328L23.0917 9.50182C22.8581 8.7767 22.5409 8.07896 22.146 7.42161L20.7376 8.20286H20.7387ZM19.5525 6.65495C19.9966 7.1164 20.3953 7.63411 20.7376 8.20286L22.146 7.42161C21.7514 6.76394 21.2805 6.14972 20.7441 5.59245L19.5525 6.65495ZM11.0115 4.11849C12.3187 3.83242 13.6761 3.83313 14.983 4.12057L15.3459 2.59765C13.8009 2.25757 12.1951 2.2565 10.6496 2.59453L11.0115 4.11849ZM11.643 5.28307V3.35599H10.018V5.28307H11.643ZM7.98788 6.41015L6.25347 5.44765L5.44097 6.80078L7.1743 7.76328L7.98788 6.41015ZM5.00872 13.6268L3.2743 14.5904L4.0868 15.9435L5.82122 14.981L5.00872 13.6268ZM5.82122 10.0185L4.08788 9.05703L3.27538 10.4112L5.00872 11.3727L5.82122 10.0185ZM11.6441 21.6404V19.7164H10.0191V21.6404H11.6441ZM7.17538 17.2362L5.44097 18.1987L6.25347 19.5529L7.9868 18.5893L7.1743 17.2352L7.17538 17.2362ZM20.5556 18.1987L18.8212 17.2362L18.0087 18.5893L19.7421 19.5518L20.5556 18.1987ZM15.9775 21.6424V19.7164H14.3525V21.6435L15.9775 21.6424ZM21.9098 9.05599L20.1754 10.0185L20.9879 11.3727L22.7212 10.4091L21.9098 9.05599ZM22.7201 14.5893L20.9879 13.6268L20.1754 14.981L21.9087 15.9424L22.7212 14.5883L22.7201 14.5893ZM15.9775 5.28307V3.35911H14.3525V5.28307H15.9775ZM19.7431 5.44765L18.0087 6.41015L18.8212 7.76432L20.5556 6.80078L19.7431 5.44765ZM14.3525 5.28307C14.3525 7.48828 16.8355 8.86745 18.8212 7.76432L18.0087 6.41015C17.8029 6.52441 17.5694 6.58458 17.3318 6.5846C17.0941 6.58463 16.8606 6.52451 16.6548 6.41029C16.449 6.29608 16.278 6.13178 16.1591 5.93392C16.0402 5.73605 15.9776 5.51159 15.9775 5.28307H14.3525ZM20.1754 10.0185C18.1896 11.1216 18.1896 13.8779 20.1754 14.981L20.9879 13.6268C20.782 13.5125 20.6111 13.3482 20.4923 13.1502C20.3734 12.9523 20.3109 12.7278 20.3109 12.4992C20.3109 12.2707 20.3734 12.0461 20.4923 11.8482C20.6111 11.6503 20.782 11.4859 20.9879 11.3716L20.1754 10.0185ZM18.8212 17.2362C16.8355 16.1331 14.3525 17.5112 14.3525 19.7164H15.9775C15.9776 19.4879 16.0402 19.2634 16.1591 19.0656C16.278 18.8677 16.449 18.7034 16.6548 18.5892C16.8606 18.475 17.0941 18.4149 17.3318 18.4149C17.5694 18.4149 17.8029 18.4751 18.0087 18.5893L18.8212 17.2352V17.2362ZM11.6441 19.7164C11.6441 17.5112 9.16113 16.1331 7.17538 17.2362L7.9868 18.5893C8.19262 18.4751 8.42716 18.4149 8.66482 18.4149C8.90248 18.4149 9.13596 18.475 9.3418 18.5892C9.54764 18.7034 9.7186 18.8677 9.83749 19.0656C9.95639 19.2634 10.019 19.4879 10.0191 19.7164H11.6441ZM5.82122 14.981C7.80697 13.8779 7.80697 11.1216 5.82122 10.0185L5.00872 11.3727C5.21456 11.4869 5.38549 11.6513 5.50433 11.8492C5.62317 12.0472 5.68574 12.2717 5.68574 12.5003C5.68574 12.7288 5.62317 12.9533 5.50433 13.1513C5.38549 13.3492 5.21456 13.5136 5.00872 13.6279L5.82122 14.981ZM10.0191 5.28307C10.019 5.51159 9.95639 5.73605 9.83749 5.93392C9.7186 6.13178 9.54764 6.29608 9.3418 6.41029C9.13596 6.52451 8.90248 6.58463 8.66482 6.5846C8.42716 6.58458 8.1937 6.52441 7.98788 6.41015L7.17538 7.76432C9.16113 8.8664 11.6441 7.48828 11.6441 5.28307H10.0191Z" fill="#707070"/>
</g>
</g>
</svg>
