<svg width="24" height="24" viewBox="0 0 24 24" fill="none" xmlns="http://www.w3.org/2000/svg">
<g id="solar:bag-check-bold">
<path id="Vector" fill-rule="evenodd" clip-rule="evenodd" d="M8.24852 6.015V5C8.24852 4.00544 8.64361 3.05161 9.34687 2.34835C10.0501 1.64509 11.004 1.25 11.9985 1.25C12.9931 1.25 13.9469 1.64509 14.6502 2.34835C15.3534 3.05161 15.7485 4.00544 15.7485 5V6.015C17.0355 6.054 17.8235 6.192 18.4245 6.691C19.2575 7.383 19.4775 8.553 19.9165 10.894L20.6665 14.894C21.2835 18.186 21.5915 19.832 20.6925 20.916C19.7925 22 18.1175 22 14.7685 22H9.22852C5.87852 22 4.20452 22 3.30452 20.916C2.40452 19.832 2.71452 18.186 3.33052 14.894L4.08052 10.894C4.52052 8.554 4.73952 7.383 5.57252 6.691C6.17352 6.192 6.96152 6.054 8.24852 6.015ZM9.74852 5C9.74852 4.40326 9.98558 3.83097 10.4075 3.40901C10.8295 2.98705 11.4018 2.75 11.9985 2.75C12.5953 2.75 13.1676 2.98705 13.5895 3.40901C14.0115 3.83097 14.2485 4.40326 14.2485 5V6H9.74852V5ZM15.4675 10.914C15.5445 10.9755 15.6087 11.0517 15.6562 11.138C15.7038 11.2244 15.7339 11.3193 15.7448 11.4172C15.7556 11.5152 15.7471 11.6144 15.7196 11.7091C15.6921 11.8037 15.6462 11.8921 15.5845 11.969L11.5845 16.969C11.5186 17.0513 11.436 17.1188 11.3422 17.167C11.2484 17.2153 11.1455 17.2432 11.0402 17.2489C10.9348 17.2547 10.8295 17.2382 10.731 17.2004C10.6325 17.1627 10.5431 17.1046 10.4685 17.03L8.46852 15.03C8.33604 14.8878 8.26392 14.6998 8.26735 14.5055C8.27077 14.3112 8.34949 14.1258 8.4869 13.9884C8.62431 13.851 8.8097 13.7723 9.004 13.7688C9.1983 13.7654 9.38635 13.8375 9.52852 13.97L10.9365 15.377L14.4125 11.031C14.4741 10.954 14.5502 10.8899 14.6365 10.8423C14.7229 10.7947 14.8178 10.7646 14.9158 10.7538C15.0138 10.7429 15.1129 10.7515 15.2076 10.779C15.3023 10.8064 15.3906 10.8523 15.4675 10.914Z" fill="#5AB344"/>
</g>
</svg>
