<svg width="200" height="59" viewBox="0 0 200 59" fill="none" xmlns="http://www.w3.org/2000/svg">
<g id="Apple store" clip-path="url(#clip0_12794_249)">
<g id="Group 10402">
<path id="Vector" d="M191.894 57.3351H7.82188C4.53574 57.3351 1.86082 54.6512 1.86082 51.3974V7.34248C1.86082 4.07589 4.53391 1.40476 7.82188 1.40476H191.894C195.179 1.40476 197.856 4.07643 197.856 7.34248V51.3974C197.856 54.6506 195.177 57.3351 191.894 57.3351Z" stroke="white" stroke-width="2.80952"/>
<g id="Group 10401">
<g id="Group 10400">
<path id="Vector_2" d="M36.833 29.8151C36.8488 28.5892 37.1744 27.3874 37.7795 26.3212C38.3846 25.255 39.2496 24.3592 40.294 23.7172C39.6306 22.7697 38.7553 21.9899 37.7378 21.4398C36.7203 20.8897 35.5885 20.5845 34.4323 20.5483C31.9661 20.2894 29.5753 22.0241 28.3185 22.0241C27.0375 22.0241 25.1025 20.574 23.0189 20.6169C21.6712 20.6604 20.3576 21.0523 19.2064 21.7544C18.0552 22.4565 17.1055 23.4449 16.4498 24.6232C13.6094 29.5408 15.7281 36.7681 18.4489 40.7432C19.8102 42.6896 21.4011 44.8639 23.4829 44.7868C25.52 44.7023 26.2808 43.4878 28.7397 43.4878C31.1759 43.4878 31.8897 44.7868 34.0137 44.7378C36.1996 44.7023 37.5768 42.7826 38.8904 40.8177C39.8684 39.4308 40.6211 37.898 41.1204 36.276C39.8504 35.7388 38.7667 34.8397 38.0042 33.6908C37.2419 32.5419 36.8345 31.194 36.833 29.8151Z" fill="white"/>
<path id="Vector_3" d="M32.8212 17.9336C34.0131 16.5028 34.6003 14.6639 34.4581 12.8071C32.6372 12.9984 30.9552 13.8686 29.7473 15.2445C29.1566 15.9167 28.7043 16.6986 28.4161 17.5457C28.1279 18.3928 28.0095 19.2883 28.0676 20.1812C28.9783 20.1906 29.8793 19.9932 30.7027 19.6039C31.5262 19.2145 32.2505 18.6435 32.8212 17.9336Z" fill="white"/>
</g>
<path id="Vector_4" d="M50.7852 21.8044H53.4274C55.9413 21.8044 57.9037 20.1755 57.9037 17.3153C57.9037 14.4551 55.9413 12.8261 53.4274 12.8261H50.7852V21.8044ZM51.8755 20.8168V13.8138H53.4018C55.1461 13.8138 56.7622 14.8398 56.7622 17.3153C56.7622 19.7907 55.1461 20.8168 53.4018 20.8168H51.8755ZM62.1992 21.907C64.1231 21.907 65.4955 20.509 65.4955 18.5722C65.4955 16.6227 64.1231 15.2374 62.1992 15.2374C60.2881 15.2374 58.9157 16.6227 58.9157 18.5722C58.9157 20.509 60.2881 21.907 62.1992 21.907ZM62.1992 20.9835C60.8781 20.9835 59.9674 19.9831 59.9674 18.5722C59.9674 17.1614 60.8781 16.1609 62.1992 16.1609C63.5331 16.1609 64.4437 17.1614 64.4437 18.5722C64.4437 19.9831 63.5331 20.9835 62.1992 20.9835ZM67.9991 21.8044H68.9867L70.5643 16.6611L72.1548 21.8044H73.1424L75.1048 15.3401H74.0659L72.6422 20.4705L71.0774 15.3401H70.0769L68.4865 20.4705L67.0628 15.3401H66.0367L67.9991 21.8044ZM76.1847 21.8044H77.2108V18.3157C77.2108 17.0588 78.006 16.1738 79.1091 16.1738C80.0839 16.1738 80.7252 16.9177 80.7252 18.0207V21.8044H81.7512V17.854C81.7512 16.2764 80.8021 15.2374 79.3399 15.2374C78.3523 15.2374 77.5443 15.6864 77.2108 16.5842V15.3401H76.1847V21.8044ZM83.5007 21.8044H84.5268V12.6851H83.5007V21.8044ZM89.1788 21.907C91.1027 21.907 92.4751 20.509 92.4751 18.5722C92.4751 16.6227 91.1027 15.2374 89.1788 15.2374C87.2677 15.2374 85.8953 16.6227 85.8953 18.5722C85.8953 20.509 87.2677 21.907 89.1788 21.907ZM89.1788 20.9835C87.8577 20.9835 86.9471 19.9831 86.9471 18.5722C86.9471 17.1614 87.8577 16.1609 89.1788 16.1609C90.5127 16.1609 91.4234 17.1614 91.4234 18.5722C91.4234 19.9831 90.5127 20.9835 89.1788 20.9835ZM96.2338 15.2374C94.7845 15.2374 93.6045 16.1609 93.489 17.4051H94.4638C94.5151 16.6996 95.259 16.1096 96.2082 16.1096C97.3112 16.1096 97.9397 16.7124 97.9397 17.5974C97.9397 17.8027 97.8114 17.9437 97.5292 17.9437H96.0671C94.5023 17.9437 93.489 18.7261 93.489 19.9574C93.489 21.1374 94.374 21.907 95.7336 21.907C96.734 21.907 97.5934 21.4324 97.9397 20.6885V21.8044H98.9658V17.6359C98.9658 16.1994 97.914 15.2374 96.2338 15.2374ZM95.8875 21.0348C95.0666 21.0348 94.5408 20.6116 94.5408 19.9446C94.5408 19.1879 95.1692 18.7261 96.1312 18.7261H97.9397V18.8929C97.9397 20.2268 97.1829 21.0348 95.8875 21.0348ZM103.229 21.907C104.139 21.907 104.986 21.4453 105.37 20.7398V21.8044H106.397V12.6851H105.37V16.3918C104.986 15.6992 104.139 15.2374 103.229 15.2374C101.215 15.2374 100.112 16.6868 100.112 18.5722C100.112 20.4577 101.215 21.907 103.229 21.907ZM103.318 20.9835C102.023 20.9835 101.164 20.0344 101.164 18.5722C101.164 17.1101 102.023 16.1609 103.318 16.1609C104.614 16.1609 105.46 17.1101 105.46 18.5722C105.46 20.0344 104.614 20.9835 103.318 20.9835ZM114.104 21.907C116.028 21.907 117.401 20.509 117.401 18.5722C117.401 16.6227 116.028 15.2374 114.104 15.2374C112.193 15.2374 110.821 16.6227 110.821 18.5722C110.821 20.509 112.193 21.907 114.104 21.907ZM114.104 20.9835C112.783 20.9835 111.873 19.9831 111.873 18.5722C111.873 17.1614 112.783 16.1609 114.104 16.1609C115.438 16.1609 116.349 17.1614 116.349 18.5722C116.349 19.9831 115.438 20.9835 114.104 20.9835ZM118.721 21.8044H119.747V18.3157C119.747 17.0588 120.542 16.1738 121.645 16.1738C122.62 16.1738 123.262 16.9177 123.262 18.0207V21.8044H124.288V17.854C124.288 16.2764 123.339 15.2374 121.876 15.2374C120.889 15.2374 120.081 15.6864 119.747 16.5842V15.3401H118.721V21.8044ZM129.748 13.2751V15.3401H128.401V16.2507H129.748V19.7779C129.748 21.0348 130.543 21.8044 131.774 21.8044H132.762V20.8937H131.813C131.184 20.8937 130.774 20.4705 130.774 19.7522V16.2507H132.762V15.3401H130.774V13.2751H129.748ZM134.016 21.8044H135.042V18.3157C135.042 17.0588 135.837 16.1738 136.94 16.1738C137.915 16.1738 138.556 16.9177 138.556 18.0207V21.8044H139.582V17.854C139.582 16.2764 138.633 15.2374 137.171 15.2374C136.183 15.2374 135.375 15.6864 135.042 16.5842V12.6851H134.016V21.8044ZM146.025 19.7266C145.82 20.5346 145.153 20.9964 144.101 20.9964C142.883 20.9964 141.998 20.0472 141.921 18.7133H146.974C146.987 18.6235 147 18.4055 147 18.2644C147 16.5457 145.871 15.2374 143.986 15.2374C142.088 15.2374 140.908 16.6355 140.908 18.5337C140.908 20.3807 142.19 21.907 144.101 21.907C145.705 21.907 146.846 21.0477 147.064 19.7266H146.025ZM143.986 16.1096C145.14 16.1096 145.871 16.8022 145.948 17.8924H141.972C142.165 16.7509 142.896 16.1096 143.986 16.1096Z" fill="white"/>
<path id="Vector_5" d="M63.4833 44.2501H66.9976L60.0716 26.2936H56.8907L49.9903 44.2501H53.479L55.0181 40.0688H61.9442L63.4833 44.2501ZM56.0955 37.1958L58.5068 30.6288L60.9181 37.1958H56.0955ZM68.7369 49.4831H71.8664V42.8392C72.5847 43.8397 73.9699 44.4553 75.5347 44.4553C79.3312 44.4553 81.7682 41.7362 81.7682 37.7858C81.7682 33.8353 79.4851 31.1162 75.7655 31.1162C74.0469 31.1162 72.636 31.8345 71.8664 32.9375V31.3214H68.7369V49.4831ZM75.1756 41.7362C73.0464 41.7362 71.6612 40.1714 71.6612 37.7858C71.6612 35.4001 73.0464 33.8353 75.1756 33.8353C77.2534 33.8353 78.6386 35.4001 78.6386 37.7858C78.6386 40.1714 77.2534 41.7362 75.1756 41.7362ZM84.0679 49.4831H87.1974V42.8392C87.9157 43.8397 89.3009 44.4553 90.8657 44.4553C94.6622 44.4553 97.0992 41.7362 97.0992 37.7858C97.0992 33.8353 94.8161 31.1162 91.0966 31.1162C89.3779 31.1162 87.967 31.8345 87.1974 32.9375V31.3214H84.0679V49.4831ZM90.5066 41.7362C88.3774 41.7362 86.9922 40.1714 86.9922 37.7858C86.9922 35.4001 88.3774 33.8353 90.5066 33.8353C92.5844 33.8353 93.9696 35.4001 93.9696 37.7858C93.9696 40.1714 92.5844 41.7362 90.5066 41.7362ZM111.039 44.4553C114.99 44.4553 117.734 42.4288 117.734 39.094C117.734 32.091 107.961 35.0666 107.961 31.0905C107.961 29.8336 109.064 29.0127 110.834 29.0127C112.732 29.0127 113.964 30.0645 114.117 31.6292H117.35C117.196 28.2688 114.63 26.0884 110.834 26.0884C107.191 26.0884 104.652 28.1406 104.652 31.0905C104.652 37.9653 114.297 35.2975 114.297 39.1453C114.297 40.7358 112.963 41.5053 111.039 41.5053C108.884 41.5053 107.55 40.2227 107.371 38.2218H104.113C104.293 41.9927 106.96 44.4553 111.039 44.4553ZM121.377 27.4223V31.3214H118.837V33.9636H121.377V39.7353C121.377 42.6084 123.224 44.2501 126.046 44.2501H128.124V41.5823H126.405C125.225 41.5823 124.532 40.9153 124.532 39.6071V33.9636H128.124V31.3214H124.532V27.4223H121.377ZM135.962 44.4553C139.886 44.4553 142.708 41.6336 142.708 37.7858C142.708 33.9379 139.886 31.1162 135.962 31.1162C132.011 31.1162 129.189 33.9379 129.189 37.7858C129.189 41.6336 132.011 44.4553 135.962 44.4553ZM135.962 41.7362C133.807 41.7362 132.37 40.1201 132.37 37.7858C132.37 35.4514 133.807 33.8353 135.962 33.8353C138.091 33.8353 139.527 35.4514 139.527 37.7858C139.527 40.1201 138.091 41.7362 135.962 41.7362ZM152.816 33.9636V31.3214H151.302C149.635 31.3214 148.634 31.9627 147.993 33.6045V31.3214H144.838V44.2501H147.993V38.1449C147.993 35.6823 148.788 33.9636 150.789 33.9636H152.816ZM163.058 39.9405C162.724 41.1718 161.673 41.8388 160.057 41.8388C158.056 41.8388 156.722 40.5049 156.491 38.4271H166.034C166.059 38.1705 166.085 37.7858 166.085 37.3497C166.085 34.2714 164.135 31.1162 159.8 31.1162C155.567 31.1162 153.464 34.3227 153.464 37.7345C153.464 41.1205 155.824 44.4553 160.057 44.4553C163.237 44.4553 165.649 42.6853 166.136 39.9405H163.058ZM159.8 33.4762C161.673 33.4762 162.801 34.7075 162.93 36.3492H156.568C156.901 34.3997 158.03 33.4762 159.8 33.4762Z" fill="white"/>
</g>
</g>
</g>
<defs>
<clipPath id="clip0_12794_249">
<rect width="198.804" height="59" fill="white" transform="translate(0.456055)"/>
</clipPath>
</defs>
</svg>
