<svg width="105" height="105" viewBox="0 0 105 105" fill="none" xmlns="http://www.w3.org/2000/svg">
<g id="mdi:car-pickup">
<path id="Vector" d="M70 26.25H45.9375V43.75H4.375V65.625H13.125C13.125 69.106 14.5078 72.4444 16.9692 74.9058C19.4306 77.3672 22.769 78.75 26.25 78.75C29.731 78.75 33.0694 77.3672 35.5308 74.9058C37.9922 72.4444 39.375 69.106 39.375 65.625H65.625C65.625 69.106 67.0078 72.4444 69.4692 74.9058C71.9306 77.3672 75.269 78.75 78.75 78.75C82.231 78.75 85.5694 77.3672 88.0308 74.9058C90.4922 72.4444 91.875 69.106 91.875 65.625H100.625V52.5C100.625 47.6437 96.7312 43.75 91.875 43.75H83.125L70 26.25ZM52.5 32.8125H67.8125L76.3875 43.75H52.5V32.8125ZM26.25 59.0625C27.9905 59.0625 29.6597 59.7539 30.8904 60.9846C32.1211 62.2153 32.8125 63.8845 32.8125 65.625C32.8125 67.3655 32.1211 69.0347 30.8904 70.2654C29.6597 71.4961 27.9905 72.1875 26.25 72.1875C24.5095 72.1875 22.8403 71.4961 21.6096 70.2654C20.3789 69.0347 19.6875 67.3655 19.6875 65.625C19.6875 63.8845 20.3789 62.2153 21.6096 60.9846C22.8403 59.7539 24.5095 59.0625 26.25 59.0625ZM78.75 59.0625C80.4905 59.0625 82.1597 59.7539 83.3904 60.9846C84.6211 62.2153 85.3125 63.8845 85.3125 65.625C85.3125 67.3655 84.6211 69.0347 83.3904 70.2654C82.1597 71.4961 80.4905 72.1875 78.75 72.1875C77.0095 72.1875 75.3403 71.4961 74.1096 70.2654C72.8789 69.0347 72.1875 67.3655 72.1875 65.625C72.1875 63.8845 72.8789 62.2153 74.1096 60.9846C75.3403 59.7539 77.0095 59.0625 78.75 59.0625Z" fill="#82D743"/>
</g>
</svg>
