<svg width="64" height="64" viewBox="0 0 64 64" fill="none" xmlns="http://www.w3.org/2000/svg">
<g id="emojione-v1:door" clip-path="url(#clip0_12583_730)">
<g id="Group">
<path id="Vector" d="M11.435 62.744H52.815C53.154 62.744 53.443 62.306 53.443 61.804V1.62002C53.443 1.11202 53.154 0.684021 52.815 0.684021H11.435C11.247 0.684021 11.108 0.783021 11.009 0.940021C11.009 0.940021 11.009 0.952021 10.995 0.962021L10.972 0.997021C10.873 1.13902 10.807 1.34002 10.807 1.62002V61.803C10.807 62.307 11.096 62.744 11.435 62.744Z" fill="#D0D1D2"/>
<path id="Vector_2" d="M0.272995 60.19H63.723V64.156H0.272995V60.19Z" fill="#D0D1D2"/>
</g>
<path id="Vector_3" d="M13.707 64.15H50.62C50.922 64.15 51.18 63.712 51.18 63.209V3.03499C51.18 2.52699 50.922 2.09698 50.62 2.09698H13.707C13.54 2.09698 13.415 2.19698 13.328 2.35298C13.328 2.35298 13.327 2.36499 13.314 2.37699C13.314 2.37699 13.306 2.39499 13.294 2.41399C13.205 2.55099 13.147 2.75499 13.147 3.03499V63.216C13.147 63.72 13.404 64.157 13.707 64.157" fill="#82D743"/>
<path id="Vector_4" d="M15.798 64.19H49.024C49.296 64.19 49.527 63.766 49.527 63.277V4.86697C49.527 4.37397 49.297 3.95697 49.024 3.95697H15.798C15.649 3.95697 15.535 4.05497 15.457 4.20697C15.457 4.20697 15.456 4.21797 15.445 4.22897C15.445 4.22897 15.437 4.24797 15.426 4.26497C15.346 4.39997 15.294 4.59797 15.294 4.86697V63.274C15.294 63.764 15.525 64.187 15.798 64.187" fill="#41A56E"/>
<path id="Vector_5" d="M18.259 28.512H31.792C31.906 28.512 31.999 28.368 31.999 28.198V7.96903C31.999 7.79803 31.906 7.65503 31.792 7.65503H18.258C18.198 7.65503 18.151 7.68803 18.12 7.74003C18.12 7.74003 18.116 7.74203 18.116 7.74703L18.108 7.75903C18.0679 7.82141 18.049 7.89504 18.054 7.96903V28.198C18.056 28.369 18.149 28.512 18.259 28.512ZM17.585 60.76H31.117C31.233 60.76 31.324 60.607 31.324 60.427V39.185C31.324 39.007 31.233 38.852 31.117 38.852H17.584C17.524 38.852 17.476 38.887 17.445 38.945C17.445 38.945 17.441 38.949 17.441 38.953C17.441 38.953 17.437 38.957 17.433 38.965C17.3927 39.0314 17.3739 39.1086 17.379 39.186V60.427C17.379 60.606 17.473 60.76 17.585 60.76Z" fill="#82D743"/>
<path id="Vector_6" d="M18.937 56.27H29.766C29.859 56.27 29.933 56.154 29.933 56.025V40.274C29.933 40.14 29.859 40.028 29.766 40.028H18.938C18.915 40.0279 18.8924 40.0341 18.8727 40.0459C18.8529 40.0577 18.8368 40.0747 18.826 40.095L18.824 40.103C18.824 40.103 18.82 40.105 18.818 40.111C18.789 40.146 18.774 40.2 18.774 40.274V56.03C18.772 56.157 18.848 56.274 18.937 56.274" fill="white"/>
<path id="Vector_7" d="M34.25 60.76H47.782C47.898 60.76 47.989 60.607 47.989 60.427V39.185C47.989 39.007 47.898 38.852 47.782 38.852H34.249C34.189 38.852 34.141 38.887 34.109 38.945C34.109 38.945 34.105 38.949 34.105 38.953C34.105 38.953 34.101 38.957 34.097 38.965C34.0572 39.0316 34.0384 39.1086 34.043 39.186V60.427C34.045 60.606 34.138 60.76 34.25 60.76Z" fill="#82D743"/>
<path id="Vector_8" d="M35.6 56.27H46.429C46.522 56.27 46.595 56.154 46.595 56.025V40.274C46.595 40.14 46.522 40.028 46.429 40.028H35.6C35.577 40.0281 35.5545 40.0344 35.5348 40.0462C35.5151 40.058 35.4989 40.0748 35.488 40.095L35.486 40.103C35.486 40.103 35.482 40.105 35.48 40.111C35.452 40.146 35.436 40.2 35.436 40.274V56.03C35.436 56.157 35.511 56.274 35.6 56.274" fill="white"/>
<path id="Vector_9" d="M21.05 37.012C23.2475 37.012 25.029 35.2695 25.029 33.12C25.029 30.9705 23.2475 29.228 21.05 29.228C18.8525 29.228 17.071 30.9705 17.071 33.12C17.071 35.2695 18.8525 37.012 21.05 37.012Z" fill="#DBC926"/>
<path id="Vector_10" d="M21.05 36.164C22.7687 36.164 24.162 34.8011 24.162 33.12C24.162 31.4388 22.7687 30.076 21.05 30.076C19.3313 30.076 17.938 31.4388 17.938 33.12C17.938 34.8011 19.3313 36.164 21.05 36.164Z" fill="#FBED21"/>
<path id="Vector_11" d="M19.27 25.826H30.785C30.882 25.826 30.961 25.702 30.961 25.557V8.34802C30.961 8.20202 30.882 8.08002 30.785 8.08002H19.266C19.2419 8.07997 19.2182 8.08669 19.1977 8.09941C19.1772 8.11214 19.1607 8.13037 19.15 8.15202C19.15 8.15202 19.146 8.15502 19.146 8.16002L19.14 8.17102C19.109 8.20802 19.094 8.26802 19.094 8.34802V25.557C19.094 25.702 19.173 25.826 19.266 25.826" fill="white"/>
<path id="Vector_12" d="M34.25 28.512H47.784C47.898 28.512 47.991 28.368 47.991 28.198V7.96903C47.991 7.79803 47.898 7.65503 47.784 7.65503H34.249C34.189 7.65503 34.143 7.68803 34.111 7.74003C34.111 7.74003 34.107 7.74203 34.107 7.74703L34.099 7.75903C34.0594 7.8216 34.0405 7.89509 34.045 7.96903V28.198C34.047 28.369 34.14 28.512 34.25 28.512Z" fill="#82D743"/>
<path id="Vector_13" d="M35.26 25.826H46.776C46.873 25.826 46.952 25.702 46.952 25.557V8.34802C46.952 8.20202 46.873 8.08002 46.776 8.08002H35.257C35.2329 8.07997 35.2092 8.08669 35.1887 8.09941C35.1682 8.11214 35.1517 8.13037 35.141 8.15202C35.141 8.15202 35.137 8.15502 35.137 8.16002L35.131 8.17102C35.101 8.20802 35.085 8.26802 35.085 8.34802V25.557C35.085 25.702 35.163 25.826 35.256 25.826" fill="white"/>
</g>
<defs>
<clipPath id="clip0_12583_730">
<rect width="64" height="64" fill="white"/>
</clipPath>
</defs>
</svg>
