<svg width="199" height="59" viewBox="0 0 199 59" fill="none" xmlns="http://www.w3.org/2000/svg">
<g id="Google play" clip-path="url(#clip0_12794_239)">
<g id="Group 10399">
<path id="Vector" d="M191.438 57.3351H7.36582C4.07968 57.3351 1.40476 54.6512 1.40476 51.3974V7.34248C1.40476 4.07589 4.07786 1.40476 7.36582 1.40476H191.438C194.723 1.40476 197.399 4.07643 197.399 7.34248V51.3974C197.399 54.6506 194.721 57.3351 191.438 57.3351Z" stroke="white" stroke-width="2.80952"/>
<g id="Group 10398">
<path id="Vector_2" fill-rule="evenodd" clip-rule="evenodd" d="M14.661 11.0632C14.2368 11.521 13.9917 12.2205 13.9917 13.1359V45.6077C13.9917 46.5232 14.2368 47.2226 14.6756 47.6621L14.789 47.761L32.9585 29.5677V29.1613L14.7744 10.9644L14.661 11.0632Z" fill="white"/>
<path id="Vector_3" fill-rule="evenodd" clip-rule="evenodd" d="M40.2865 35.6509L34.2263 29.5828V29.1579L40.2865 23.0898L40.4183 23.1705L47.5866 27.25C49.6383 28.4072 49.6383 30.3188 47.5866 31.4907L40.4183 35.5703L40.2865 35.6509Z" fill="white"/>
<path id="Vector_4" fill-rule="evenodd" clip-rule="evenodd" d="M39.777 36.2111L33.5852 30.0112L15.3022 48.318C15.9715 49.0358 17.0944 49.1163 18.3488 48.4168L39.777 36.2111Z" fill="white"/>
<path id="Vector_5" fill-rule="evenodd" clip-rule="evenodd" d="M39.777 22.529L18.3488 10.3415C17.0944 9.6238 15.9679 9.72263 15.3022 10.4404L33.5852 28.7289L39.777 22.529Z" fill="white"/>
</g>
<path id="Vector_6" d="M60.0003 21.907C61.3214 21.907 62.4373 21.2272 62.8606 20.2396V21.8044H63.8738V18.7261C63.8738 17.7001 62.9375 17.187 62.2834 17.187H60.0645V18.1361H62.091C62.5271 18.1361 62.7964 18.4055 62.7964 18.8159C62.7964 20.1114 61.4882 20.9451 60.0132 20.9451C58.1662 20.9451 56.8067 19.6368 56.8067 17.3153C56.8067 14.9809 58.1662 13.7111 60.0132 13.7111C61.3984 13.7111 62.5271 14.5192 62.7323 15.6607H63.8866C63.6814 13.942 62.0782 12.7235 60.026 12.7235C57.7943 12.7235 55.6908 14.2498 55.6908 17.3153C55.6908 20.3807 57.7814 21.907 60.0003 21.907ZM70.1131 19.7266C69.9078 20.5346 69.2409 20.9964 68.1892 20.9964C66.9707 20.9964 66.0857 20.0472 66.0087 18.7133H71.0622C71.075 18.6235 71.0878 18.4055 71.0878 18.2644C71.0878 16.5457 69.9592 15.2374 68.0737 15.2374C66.1755 15.2374 64.9955 16.6355 64.9955 18.5337C64.9955 20.3807 66.2781 21.907 68.1892 21.907C69.7924 21.907 70.9339 21.0477 71.152 19.7266H70.1131ZM68.0737 16.1096C69.2281 16.1096 69.9592 16.8022 70.0361 17.8924H66.06C66.2524 16.7509 66.9835 16.1096 68.0737 16.1096ZM73.0996 13.2751V15.3401H71.7529V16.2507H73.0996V19.7779C73.0996 21.0348 73.8948 21.8044 75.1261 21.8044H76.1137V20.8937H75.1646C74.5361 20.8937 74.1257 20.4705 74.1257 19.7522V16.2507H76.1137V15.3401H74.1257V13.2751H73.0996ZM80.2085 12.6851V14.1216H81.3885V12.6851H80.2085ZM80.2854 21.8044H81.3115V15.3401H80.2854V21.8044ZM83.7087 13.2751V15.3401H82.362V16.2507H83.7087V19.7779C83.7087 21.0348 84.5039 21.8044 85.7352 21.8044H86.7228V20.8937H85.7737C85.1452 20.8937 84.7348 20.4705 84.7348 19.7522V16.2507H86.7228V15.3401H84.7348V13.2751H83.7087ZM93.806 21.907C95.7299 21.907 97.1023 20.509 97.1023 18.5722C97.1023 16.6227 95.7299 15.2374 93.806 15.2374C91.895 15.2374 90.5226 16.6227 90.5226 18.5722C90.5226 20.509 91.895 21.907 93.806 21.907ZM93.806 20.9835C92.485 20.9835 91.5743 19.9831 91.5743 18.5722C91.5743 17.1614 92.485 16.1609 93.806 16.1609C95.1399 16.1609 96.0506 17.1614 96.0506 18.5722C96.0506 19.9831 95.1399 20.9835 93.806 20.9835ZM98.4221 21.8044H99.4482V18.3157C99.4482 17.0588 100.243 16.1738 101.346 16.1738C102.321 16.1738 102.963 16.9177 102.963 18.0207V21.8044H103.989V17.854C103.989 16.2764 103.04 15.2374 101.577 15.2374C100.59 15.2374 99.7817 15.6864 99.4482 16.5842V15.3401H98.4221V21.8044Z" fill="white"/>
<path id="Vector_7" d="M62.4743 43.7936C64.6445 43.7936 66.4222 42.6854 67.0224 41.0463V43.6089H69.7467V37.5832C69.7467 36.0364 68.4769 34.9282 67.0686 34.9282H62.7744V37.26H66.0528C66.5607 37.26 66.8839 37.5832 66.8839 38.0911C66.8839 39.8227 64.783 41.2771 62.5897 41.2771C59.727 41.2771 57.5106 39.107 57.5106 35.5285C57.5106 31.95 59.727 29.8953 62.6359 29.8953C64.8523 29.8953 66.4453 31.1189 66.7223 32.9428H69.7929C69.5389 29.5952 66.63 27.2634 62.659 27.2634C58.4572 27.2634 54.5786 30.0107 54.5786 35.5285C54.5786 41.0463 58.3879 43.7936 62.4743 43.7936ZM77.6014 43.7936C81.1337 43.7936 83.6732 41.2541 83.6732 37.791C83.6732 34.328 81.1337 31.7884 77.6014 31.7884C74.046 31.7884 71.5064 34.328 71.5064 37.791C71.5064 41.2541 74.046 43.7936 77.6014 43.7936ZM77.6014 41.3464C75.6621 41.3464 74.3692 39.8919 74.3692 37.791C74.3692 35.6901 75.6621 34.2356 77.6014 34.2356C79.5176 34.2356 80.8105 35.6901 80.8105 37.791C80.8105 39.8919 79.5176 41.3464 77.6014 41.3464ZM91.0611 43.7936C94.5934 43.7936 97.1329 41.2541 97.1329 37.791C97.1329 34.328 94.5934 31.7884 91.0611 31.7884C87.5057 31.7884 84.9661 34.328 84.9661 37.791C84.9661 41.2541 87.5057 43.7936 91.0611 43.7936ZM91.0611 41.3464C89.1218 41.3464 87.8289 39.8919 87.8289 37.791C87.8289 35.6901 89.1218 34.2356 91.0611 34.2356C92.9773 34.2356 94.2702 35.6901 94.2702 37.791C94.2702 39.8919 92.9773 41.3464 91.0611 41.3464ZM107.476 31.9731V33.2891C106.806 32.3887 105.537 31.7884 104.082 31.7884C100.619 31.7884 98.5874 34.2356 98.5874 37.791C98.5874 41.3464 100.619 43.7936 104.128 43.7936C105.583 43.7936 106.922 43.2164 107.499 42.3161V43.9783C107.499 45.2019 106.691 46.0561 105.56 46.0561H100.203V48.3187H105.952C108.561 48.3187 110.316 46.6795 110.316 44.2554V31.9731H107.476ZM104.521 41.3464C102.628 41.3464 101.404 39.9381 101.404 37.791C101.404 35.6439 102.628 34.2356 104.521 34.2356C106.437 34.2356 107.684 35.6439 107.684 37.791C107.684 39.9381 106.437 41.3464 104.521 41.3464ZM113.189 43.6089H116.006V26.9863H113.189V43.6089ZM126.72 39.7303C126.42 40.8385 125.473 41.4387 124.019 41.4387C122.218 41.4387 121.018 40.2382 120.81 38.3682H129.398C129.421 38.1373 129.444 37.791 129.444 37.3985C129.444 34.6281 127.69 31.7884 123.788 31.7884C119.979 31.7884 118.086 34.6743 118.086 37.7448C118.086 40.7923 120.21 43.7936 124.019 43.7936C126.882 43.7936 129.052 42.2006 129.491 39.7303H126.72ZM123.788 33.9124C125.473 33.9124 126.489 35.0206 126.605 36.4981H120.879C121.179 34.7435 122.195 33.9124 123.788 33.9124ZM136.73 43.6089H139.8V37.4678H143.217C146.588 37.4678 148.596 35.39 148.596 32.4579C148.596 29.5259 146.588 27.4481 143.217 27.4481H136.73V43.6089ZM139.8 34.9051V30.0107H143.079C144.879 30.0107 145.618 31.1651 145.618 32.4579C145.618 33.7508 144.879 34.9051 143.079 34.9051H139.8ZM150.457 43.6089H153.274V26.9863H150.457V43.6089ZM160.62 31.7884C157.596 31.7884 155.633 33.5892 155.495 35.8979H158.034C158.081 34.859 158.981 33.9124 160.482 33.9124C161.982 33.9124 162.86 34.7205 162.86 35.8517C162.86 36.3134 162.582 36.6367 162.005 36.6367H159.858C157.249 36.6367 155.495 38.045 155.495 40.3075C155.495 42.3161 157.065 43.7936 159.373 43.7936C161.036 43.7936 162.375 43.0318 162.86 41.8774V43.6089H165.653V36.1288C165.653 33.4968 163.575 31.7884 160.62 31.7884ZM160.043 41.6927C158.981 41.6927 158.242 41.0924 158.242 40.1921C158.242 39.1762 159.05 38.5067 160.251 38.5067H162.86V38.6914C162.86 40.446 161.821 41.6927 160.043 41.6927ZM177.61 31.9731H174.701L172.023 39.9612L169.322 31.9731H166.436L170.684 43.6089L169.045 48.3187H171.746L173.547 43.0548L177.61 31.9731Z" fill="white"/>
</g>
</g>
<defs>
<clipPath id="clip0_12794_239">
<rect width="198.804" height="59" fill="white"/>
</clipPath>
</defs>
</svg>
