<svg width="55" height="65" viewBox="0 0 55 65" fill="none" xmlns="http://www.w3.org/2000/svg">
<path id="Vector" fill-rule="evenodd" clip-rule="evenodd" d="M27.0291 64.0156C14.2864 64.0156 7.91652 64.0156 3.95826 59.3265C-3.54322e-07 54.6437 0 47.0963 0 32.0078C0 16.9193 -3.54322e-07 9.37509 3.95826 4.68594C7.91652 0 14.2894 0 27.0291 0C39.7718 0 46.1416 0 50.0999 4.68594C54.0582 9.37829 54.0582 16.9193 54.0582 32.0078C54.0582 47.0963 54.0582 54.6405 50.0999 59.3265C46.1416 64.0156 39.7688 64.0156 27.0291 64.0156ZM36.0388 12.8031H18.0194C16.6229 12.8031 15.9261 12.8031 15.3525 12.9664C14.5893 13.1846 13.8934 13.613 13.3346 14.2086C12.7758 14.8041 12.3739 15.5458 12.1691 16.3592C12.0129 16.9769 12.0129 17.7195 12.0129 19.2047C12.0129 20.6899 12.0129 21.4356 12.1661 22.047C12.3709 22.8604 12.7728 23.6021 13.3316 24.1976C13.8904 24.7931 14.5863 25.2215 15.3495 25.4398C15.9291 25.6063 16.6259 25.6063 18.0194 25.6063H36.0388C37.4353 25.6063 38.132 25.6063 38.7056 25.443C39.4689 25.2247 40.1648 24.7963 40.7236 24.2008C41.2823 23.6053 41.6843 22.8636 41.8891 22.0502C42.0452 21.4324 42.0452 20.6899 42.0452 19.2047C42.0452 17.7195 42.0452 16.9737 41.8921 16.3624C41.6873 15.549 41.2853 14.8073 40.7266 14.2118C40.1678 13.6162 39.4719 13.1878 38.7087 12.9696C38.132 12.8031 37.4323 12.8031 36.0388 12.8031ZM18.0194 35.2086C18.0194 36.0575 17.703 36.8716 17.1398 37.4719C16.5765 38.0722 15.8127 38.4094 15.0162 38.4094C14.2197 38.4094 13.4558 38.0722 12.8926 37.4719C12.3293 36.8716 12.0129 36.0575 12.0129 35.2086C12.0129 34.3597 12.3293 33.5456 12.8926 32.9453C13.4558 32.345 14.2197 32.0078 15.0162 32.0078C15.8127 32.0078 16.5765 32.345 17.1398 32.9453C17.703 33.5456 18.0194 34.3597 18.0194 35.2086ZM27.0291 38.4094C27.8256 38.4094 28.5895 38.0722 29.1527 37.4719C29.7159 36.8716 30.0323 36.0575 30.0323 35.2086C30.0323 34.3597 29.7159 33.5456 29.1527 32.9453C28.5895 32.345 27.8256 32.0078 27.0291 32.0078C26.2326 32.0078 25.4687 32.345 24.9055 32.9453C24.3423 33.5456 24.0259 34.3597 24.0259 35.2086C24.0259 36.0575 24.3423 36.8716 24.9055 37.4719C25.4687 38.0722 26.2326 38.4094 27.0291 38.4094ZM42.0452 35.2086C42.0452 36.0575 41.7288 36.8716 41.1656 37.4719C40.6024 38.0722 39.8385 38.4094 39.042 38.4094C38.2455 38.4094 37.4816 38.0722 36.9184 37.4719C36.3552 36.8716 36.0388 36.0575 36.0388 35.2086C36.0388 34.3597 36.3552 33.5456 36.9184 32.9453C37.4816 32.345 38.2455 32.0078 39.042 32.0078C39.8385 32.0078 40.6024 32.345 41.1656 32.9453C41.7288 33.5456 42.0452 34.3597 42.0452 35.2086ZM39.042 51.2125C39.8385 51.2125 40.6024 50.8753 41.1656 50.275C41.7288 49.6748 42.0452 48.8606 42.0452 48.0117C42.0452 47.1628 41.7288 46.3487 41.1656 45.7484C40.6024 45.1482 39.8385 44.8109 39.042 44.8109C38.2455 44.8109 37.4816 45.1482 36.9184 45.7484C36.3552 46.3487 36.0388 47.1628 36.0388 48.0117C36.0388 48.8606 36.3552 49.6748 36.9184 50.275C37.4816 50.8753 38.2455 51.2125 39.042 51.2125ZM30.0323 48.0117C30.0323 48.8606 29.7159 49.6748 29.1527 50.275C28.5895 50.8753 27.8256 51.2125 27.0291 51.2125C26.2326 51.2125 25.4687 50.8753 24.9055 50.275C24.3423 49.6748 24.0259 48.8606 24.0259 48.0117C24.0259 47.1628 24.3423 46.3487 24.9055 45.7484C25.4687 45.1482 26.2326 44.8109 27.0291 44.8109C27.8256 44.8109 28.5895 45.1482 29.1527 45.7484C29.7159 46.3487 30.0323 47.1628 30.0323 48.0117ZM15.0162 51.2125C15.8127 51.2125 16.5765 50.8753 17.1398 50.275C17.703 49.6748 18.0194 48.8606 18.0194 48.0117C18.0194 47.1628 17.703 46.3487 17.1398 45.7484C16.5765 45.1482 15.8127 44.8109 15.0162 44.8109C14.2197 44.8109 13.4558 45.1482 12.8926 45.7484C12.3293 46.3487 12.0129 47.1628 12.0129 48.0117C12.0129 48.8606 12.3293 49.6748 12.8926 50.275C13.4558 50.8753 14.2197 51.2125 15.0162 51.2125Z" fill="#92DC5A"/>
</svg>
