<svg width="58" height="62" viewBox="0 0 58 62" fill="none" xmlns="http://www.w3.org/2000/svg">
<path id="Vector" d="M43.1908 12.2752H57.5877V18.4127H51.829V58.307C51.829 59.1209 51.5256 59.9015 50.9856 60.477C50.4456 61.0525 49.7132 61.3758 48.9496 61.3758H8.63816C7.8745 61.3758 7.14212 61.0525 6.60213 60.477C6.06214 59.9015 5.75877 59.1209 5.75877 58.307V18.4127H0V12.2752H14.3969V3.06879C14.3969 2.2549 14.7003 1.47434 15.2403 0.898828C15.7803 0.323318 16.5127 0 17.2763 0H40.3114C41.0751 0 41.8075 0.323318 42.3475 0.898828C42.8874 1.47434 43.1908 2.2549 43.1908 3.06879V12.2752ZM20.1557 27.6191V46.0319H25.9145V27.6191H20.1557ZM31.6733 27.6191V46.0319H37.432V27.6191H31.6733ZM20.1557 6.13758V12.2752H37.432V6.13758H20.1557Z" fill="#82D743"/>
</svg>
