<svg width="82" height="63" viewBox="0 0 82 63" fill="none" xmlns="http://www.w3.org/2000/svg">
<path id="Vector" d="M18.422 56.9376C19.8877 56.9376 21.2934 56.3171 22.3299 55.2124C23.3663 54.1078 23.9486 52.6097 23.9486 51.0475C23.9486 49.4854 23.3663 47.9872 22.3299 46.8826C21.2934 45.778 19.8877 45.1574 18.422 45.1574C16.9563 45.1574 15.5505 45.778 14.5141 46.8826C13.4777 47.9872 12.8954 49.4854 12.8954 51.0475C12.8954 52.6097 13.4777 54.1078 14.5141 55.2124C15.5505 56.3171 16.9563 56.9376 18.422 56.9376ZM12.8954 21.597L5.67404 31.4139H22.1064V21.597M62.6345 56.9376C64.1002 56.9376 65.506 56.3171 66.5424 55.2124C67.5788 54.1078 68.1611 52.6097 68.1611 51.0475C68.1611 49.4854 67.5788 47.9872 66.5424 46.8826C65.506 45.778 64.1002 45.1574 62.6345 45.1574C61.1688 45.1574 59.7631 45.778 58.7266 46.8826C57.6902 47.9872 57.1079 49.4854 57.1079 51.0475C57.1079 52.6097 57.6902 54.1078 58.7266 55.2124C59.7631 56.3171 61.1688 56.9376 62.6345 56.9376ZM11.0532 15.7069H22.1064V0H73.6876C77.7773 0 81.0564 3.49479 81.0564 7.85346V51.0475H73.6876C73.6876 54.1718 72.5231 57.1682 70.4503 59.3774C68.3774 61.5866 65.566 62.8277 62.6345 62.8277C59.703 62.8277 56.8916 61.5866 54.8188 59.3774C52.7459 57.1682 51.5814 54.1718 51.5814 51.0475H29.4751C29.4751 54.1718 28.3106 57.1682 26.2377 59.3774C24.1649 61.5866 21.3535 62.8277 18.422 62.8277C15.4905 62.8277 12.6791 61.5866 10.6062 59.3774C8.53338 57.1682 7.36886 54.1718 7.36886 51.0475H9.91821e-05V31.4139L11.0532 15.7069Z" fill="#82D743"/>
</svg>
