<svg width="69" height="69" viewBox="0 0 69 69" fill="none" xmlns="http://www.w3.org/2000/svg">
<g id="tdesign:money">
<path id="Vector" d="M34.5 35.9375C31.8313 35.9375 29.2718 36.9977 27.3847 38.8847C25.4977 40.7718 24.4375 43.3313 24.4375 46C24.4375 48.6687 25.4977 51.2282 27.3847 53.1153C29.2718 55.0023 31.8313 56.0625 34.5 56.0625C37.1687 56.0625 39.7282 55.0023 41.6153 53.1153C43.5023 51.2282 44.5625 48.6687 44.5625 46C44.5625 43.3313 43.5023 40.7718 41.6153 38.8847C39.7282 36.9977 37.1687 35.9375 34.5 35.9375ZM30.1875 46C30.1875 44.8563 30.6419 43.7594 31.4506 42.9506C32.2594 42.1419 33.3563 41.6875 34.5 41.6875C35.6437 41.6875 36.7406 42.1419 37.5494 42.9506C38.3581 43.7594 38.8125 44.8563 38.8125 46C38.8125 47.1437 38.3581 48.2406 37.5494 49.0494C36.7406 49.8581 35.6437 50.3125 34.5 50.3125C33.3563 50.3125 32.2594 49.8581 31.4506 49.0494C30.6419 48.2406 30.1875 47.1437 30.1875 46Z" fill="#4ECB71"/>
<path id="Vector_2" d="M50.3872 14.7085L41.2476 1.89465L7.64175 28.7414L5.77875 28.7213V28.75H4.3125V63.25H64.6875V28.75H61.9217L56.419 12.6529L50.3872 14.7085ZM55.8469 28.75H27.0164L48.4897 21.4303L52.8655 20.0302L55.8469 28.75ZM44.7062 16.6463L22.54 24.2018L40.0947 10.1775L44.7062 16.6463ZM10.0625 52.2359V39.7584C11.2754 39.3286 12.3772 38.6335 13.2874 37.7238C14.1976 36.8141 14.8933 35.7127 15.3237 34.5H53.6763C54.1066 35.7132 54.8022 36.815 55.7123 37.7252C56.6225 38.6354 57.7244 39.331 58.9375 39.7613V52.2388C57.7244 52.6691 56.6225 53.3647 55.7123 54.2749C54.8022 55.1851 54.1066 56.2869 53.6763 57.5H15.3295C14.8988 56.2859 14.2024 55.1832 13.2912 54.2725C12.38 53.3617 11.2769 52.666 10.0625 52.2359Z" fill="#82D743"/>
</g>
</svg>
