<svg width="29" height="29" viewBox="0 0 29 29" fill="none" xmlns="http://www.w3.org/2000/svg">
<g id="solar:cart-plus-bold">
<g id="Group">
<path id="Vector" fill-rule="evenodd" clip-rule="evenodd" d="M3.67325 2.76943C3.44635 2.68979 3.19712 2.70355 2.98037 2.80767C2.76362 2.9118 2.59711 3.09776 2.51747 3.32466C2.43784 3.55155 2.4516 3.80079 2.55572 4.01753C2.65985 4.23428 2.84581 4.40079 3.0727 4.48043L3.38808 4.59039C4.19525 4.87434 4.7257 5.06164 5.116 5.25376C5.48212 5.4338 5.64283 5.58001 5.74916 5.73468C5.85791 5.89418 5.9425 6.11409 5.99083 6.55272C6.03916 7.01189 6.04158 7.61001 6.04158 8.50418V11.6483C6.04158 15.2032 6.1177 16.3753 7.16533 17.4797C8.21175 18.5841 9.89616 18.5841 13.2674 18.5841H19.674C21.5602 18.5841 22.5039 18.5841 23.1697 18.0403C23.8367 17.4966 24.0276 16.5734 24.4082 14.7271L25.0124 11.7969C25.4317 9.69439 25.6407 8.64434 25.1042 7.94714C24.5677 7.24993 22.7359 7.24993 20.6999 7.24993H7.84441C7.83927 6.95209 7.82193 6.65459 7.79245 6.35818C7.7272 5.75764 7.58704 5.21026 7.24629 4.71243C6.90312 4.20976 6.44637 3.88834 5.9135 3.62614C5.41566 3.38205 4.7825 3.15972 4.03816 2.89751L3.67325 2.76943ZM15.7082 9.96868C15.9486 9.96868 16.1791 10.0642 16.3491 10.2341C16.519 10.4041 16.6145 10.6346 16.6145 10.8749V12.3853H18.1249C18.3653 12.3853 18.5958 12.4808 18.7657 12.6508C18.9357 12.8207 19.0312 13.0512 19.0312 13.2916C19.0312 13.5319 18.9357 13.7625 18.7657 13.9324C18.5958 14.1024 18.3653 14.1978 18.1249 14.1978H16.6145V15.7083C16.6145 15.9486 16.519 16.1791 16.3491 16.3491C16.1791 16.519 15.9486 16.6145 15.7082 16.6145C15.4679 16.6145 15.2374 16.519 15.0674 16.3491C14.8975 16.1791 14.802 15.9486 14.802 15.7083V14.1978H13.2916C13.0512 14.1978 12.8207 14.1024 12.6508 13.9324C12.4808 13.7625 12.3853 13.5319 12.3853 13.2916C12.3853 13.0512 12.4808 12.8207 12.6508 12.6508C12.8207 12.4808 13.0512 12.3853 13.2916 12.3853H14.802V10.8749C14.802 10.6346 14.8975 10.4041 15.0674 10.2341C15.2374 10.0642 15.4679 9.96868 15.7082 9.96868Z" fill="#4A4A4A"/>
<path id="Vector_2" d="M9.0625 21.75C9.54321 21.75 10.0042 21.941 10.3441 22.2809C10.684 22.6208 10.875 23.0818 10.875 23.5625C10.875 24.0432 10.684 24.5042 10.3441 24.8441C10.0042 25.184 9.54321 25.375 9.0625 25.375C8.5818 25.375 8.12078 25.184 7.78087 24.8441C7.44096 24.5042 7.25 24.0432 7.25 23.5625C7.25 23.0818 7.44096 22.6208 7.78087 22.2809C8.12078 21.941 8.5818 21.75 9.0625 21.75ZM19.9375 21.75C20.4182 21.75 20.8792 21.941 21.2191 22.2809C21.559 22.6208 21.75 23.0818 21.75 23.5625C21.75 24.0432 21.559 24.5042 21.2191 24.8441C20.8792 25.184 20.4182 25.375 19.9375 25.375C19.4568 25.375 18.9958 25.184 18.6559 24.8441C18.316 24.5042 18.125 24.0432 18.125 23.5625C18.125 23.0818 18.316 22.6208 18.6559 22.2809C18.9958 21.941 19.4568 21.75 19.9375 21.75Z" fill="#4A4A4A"/>
</g>
</g>
</svg>
