<svg width="36" height="33" viewBox="0 0 36 33" fill="none" xmlns="http://www.w3.org/2000/svg">
<path id="Vector" d="M29.4822 12.376C29.5031 10.757 29.9332 9.16967 30.7323 7.76158C31.5315 6.35341 32.6739 5.17036 34.0532 4.32246C33.177 3.07106 32.021 2.04123 30.6772 1.3147C29.3333 0.588171 27.8386 0.185099 26.3117 0.13733C23.0546 -0.204592 19.897 2.08638 18.2372 2.08638C16.5453 2.08638 13.9898 0.171208 11.238 0.227871C9.458 0.28538 7.72324 0.802963 6.20284 1.73023C4.68245 2.65749 3.42808 3.96284 2.56214 5.51898C-1.18917 12.0137 1.60896 21.5588 5.20232 26.8087C7.00018 29.3793 9.10134 32.2509 11.8508 32.1491C14.5411 32.0375 15.5459 30.4335 18.7935 30.4335C22.0109 30.4335 22.9536 32.1491 25.7588 32.0844C28.6457 32.0374 30.4645 29.5022 32.1994 26.9072C33.4911 25.0754 34.4851 23.051 35.1446 20.9088C33.4673 20.1994 32.036 19.012 31.029 17.4946C30.0223 15.9772 29.4843 14.197 29.4822 12.376Z" fill="#16CB3E"/>
</svg>
