<svg width="32" height="32" viewBox="0 0 32 32" fill="none" xmlns="http://www.w3.org/2000/svg">
<g id="Wallet Icon" clip-path="url(#clip0_4_2808)">
<path id="Vector" d="M30.7479 8.81594C31.4382 8.81594 31.9977 8.2564 31.9977 7.56613V6.25382C31.9977 2.80546 29.1922 0 25.7438 0C25.7438 0 6.15246 0.00293706 6.10416 0.00862372C4.45509 0.0662402 2.87101 0.773885 1.72918 1.97033C0.558794 3.19665 -0.0513653 4.79166 0.00606367 6.46985C0.00368902 6.50166 0.0024392 24.4964 0.0024392 24.4964C0.0024392 28.6339 3.36857 32 7.50608 32H25.7439C29.1922 32 31.9977 29.1945 31.9977 25.7462V16.2571C31.9977 12.8087 29.1922 10.0033 25.7439 10.0033H6.25145C4.24481 10.0033 2.59968 8.43487 2.50613 6.43267C2.45858 5.41457 2.82483 4.44272 3.53735 3.69608C4.26018 2.93869 5.27535 2.50438 6.32244 2.50438C6.35937 2.50438 25.7437 2.49963 25.7437 2.49963C27.8138 2.49963 29.4979 4.18375 29.4979 6.25382V7.56613C29.4981 8.2564 30.0576 8.81594 30.7479 8.81594ZM6.25145 12.5029H25.7438C27.8139 12.5029 29.498 14.187 29.498 16.2571V25.7462C29.498 27.8162 27.8139 29.5004 25.7438 29.5004H7.50608C4.74686 29.5004 2.50207 27.2556 2.50207 24.4964V11.2581C3.54741 12.0412 4.84628 12.5029 6.25145 12.5029ZM26.9984 21.0016C26.9984 21.8644 26.299 22.5639 25.4362 22.5639C23.3639 22.4816 23.3644 19.5214 25.4362 19.4394C26.299 19.4394 26.9984 20.1388 26.9984 21.0016ZM26.9984 6.25382C26.9984 5.56355 26.4389 5.00401 25.7486 5.00401H6.25151C4.59326 5.07 4.59451 7.43821 6.25151 7.50364H25.7486C26.4388 7.50364 26.9984 6.94409 26.9984 6.25382Z" fill="#060714"/>
</g>
<defs>
<clipPath id="clip0_4_2808">
<rect width="32" height="32" fill="white"/>
</clipPath>
</defs>
</svg>
