<svg width="17" height="17" viewBox="0 0 17 17" fill="none" xmlns="http://www.w3.org/2000/svg">
<g id="material-symbols-light:delete-outline">
<path id="Vector" d="M5.39135 14.1665C5.07497 14.1665 4.80509 14.0551 4.58173 13.8322C4.35884 13.6093 4.2474 13.3394 4.2474 13.0226V4.24984H3.53906V3.54151H6.3724V2.99609H10.6224V3.54151H13.4557V4.24984H12.7474V13.0226C12.7474 13.3484 12.6383 13.6204 12.4201 13.8386C12.2015 14.0572 11.9293 14.1665 11.6034 14.1665H5.39135ZM12.0391 4.24984H4.95573V13.0226C4.95573 13.1496 4.99658 13.2539 5.07827 13.3356C5.15997 13.4173 5.26433 13.4582 5.39135 13.4582H11.6034C11.712 13.4582 11.8119 13.4128 11.9031 13.3222C11.9937 13.231 12.0391 13.1312 12.0391 13.0226V4.24984ZM6.94473 12.0415H7.65306V5.66651H6.94473V12.0415ZM9.34173 12.0415H10.0501V5.66651H9.34173V12.0415Z" fill="black"/>
</g>
</svg>
