<svg width="18" height="18" viewBox="0 0 18 18" fill="none" xmlns="http://www.w3.org/2000/svg">
<g id="circum:edit">
<path id="Vector" d="M2.66406 15.7036H15.3391C15.4385 15.7036 15.5339 15.6641 15.6042 15.5937C15.6746 15.5234 15.7141 15.428 15.7141 15.3286C15.7141 15.2291 15.6746 15.1337 15.6042 15.0634C15.5339 14.9931 15.4385 14.9536 15.3391 14.9536H2.66406C2.56461 14.9536 2.46922 14.9931 2.3989 15.0634C2.32857 15.1337 2.28906 15.2291 2.28906 15.3286C2.28906 15.428 2.32857 15.5234 2.3989 15.5937C2.46922 15.6641 2.56461 15.7036 2.66406 15.7036ZM7.28556 12.8851C7.60236 12.7964 7.89142 12.6287 8.12556 12.3976L15.2806 5.24258C15.5256 4.99659 15.6632 4.66353 15.6632 4.31633C15.6632 3.96912 15.5256 3.63607 15.2806 3.39008L14.5756 2.69258C14.3261 2.45427 13.9943 2.32129 13.6493 2.32129C13.3043 2.32129 12.9726 2.45427 12.7231 2.69258L5.56806 9.84008C5.33657 10.0727 5.17093 10.3625 5.08806 10.6801L4.53306 12.7501C4.50673 12.8446 4.50605 12.9445 4.5311 13.0394C4.55614 13.1343 4.606 13.2208 4.67556 13.2901C4.78172 13.3944 4.9242 13.4536 5.07306 13.4551L7.28556 12.8851ZM7.59306 11.8651C7.4548 12.0058 7.28125 12.1069 7.09056 12.1576L6.36306 12.3526L5.61306 11.6026L5.80806 10.8751C5.86052 10.6851 5.9613 10.512 6.10056 10.3726L6.38556 10.0951L7.87806 11.5876L7.59306 11.8651ZM8.41056 11.0551L6.91806 9.56258L11.9656 4.51508L13.4581 6.00758L8.41056 11.0551ZM14.7481 4.71758L13.9906 5.47508L12.4981 3.98258L13.2556 3.21758C13.3077 3.16524 13.3696 3.12371 13.4378 3.09537C13.5061 3.06704 13.5792 3.05245 13.6531 3.05245C13.7269 3.05245 13.8001 3.06704 13.8683 3.09537C13.9365 3.12371 13.9984 3.16524 14.0506 3.21758L14.7481 3.92258C14.8527 4.02843 14.9113 4.17125 14.9113 4.32008C14.9113 4.4689 14.8527 4.61172 14.7481 4.71758Z" fill="black"/>
</g>
</svg>
