<svg width="24" height="24" viewBox="0 0 24 24" fill="none" xmlns="http://www.w3.org/2000/svg">
<g id="solar:bag-2-outline">
<g id="Group 10558">
<path id="Vector" fill-rule="evenodd" clip-rule="evenodd" d="M11.7588 2.75C11.1621 2.75 10.5898 2.98705 10.1678 3.40901C9.74588 3.83097 9.50882 4.40326 9.50882 5V5.26C10.0658 5.25 10.6768 5.25 11.3488 5.25H12.1698C12.8398 5.25 13.4518 5.25 14.0098 5.26V5C14.0098 4.70444 13.9516 4.41178 13.8385 4.13873C13.7253 3.86568 13.5595 3.6176 13.3505 3.40866C13.1414 3.19971 12.8933 3.034 12.6202 2.92098C12.3471 2.80797 12.0544 2.74987 11.7588 2.75ZM15.5088 5.328V5C15.5088 4.00544 15.1137 3.05161 14.4105 2.34835C13.7072 1.64509 12.7534 1.25 11.7588 1.25C10.7643 1.25 9.81043 1.64509 9.10717 2.34835C8.40391 3.05161 8.00882 4.00544 8.00882 5V5.328C7.86582 5.34 7.72882 5.354 7.59482 5.371C6.58482 5.496 5.75282 5.758 5.04482 6.345C4.33782 6.932 3.92682 7.702 3.61782 8.672C3.31782 9.612 3.09182 10.819 2.80782 12.338L2.78682 12.448C2.38482 14.591 2.06882 16.28 2.00982 17.611C1.94982 18.976 2.15382 20.106 2.92382 21.033C3.69382 21.961 4.76682 22.369 6.11882 22.562C7.43882 22.75 9.15582 22.75 11.3368 22.75H12.1818C14.3618 22.75 16.0798 22.75 17.3988 22.562C18.7508 22.369 19.8248 21.961 20.5948 21.033C21.3648 20.106 21.5668 18.976 21.5078 17.611C21.4498 16.28 21.1328 14.591 20.7308 12.448L20.7108 12.338C20.4258 10.819 20.1988 9.611 19.9008 8.672C19.5908 7.702 19.1808 6.932 18.4728 6.345C17.7658 5.758 16.9328 5.495 15.9228 5.371C15.7851 5.35411 15.6471 5.33977 15.5088 5.328ZM7.77882 6.86C6.92382 6.965 6.40682 7.164 6.00282 7.5C5.59982 7.834 5.30882 8.305 5.04682 9.127C4.77982 9.967 4.56882 11.085 4.27282 12.664C3.85682 14.881 3.56182 16.464 3.50882 17.677C3.45682 18.867 3.64882 19.557 4.07782 20.076C4.50782 20.593 5.15082 20.908 6.33082 21.076C7.53082 21.248 9.14282 21.25 11.3978 21.25H12.1198C14.3748 21.25 15.9858 21.248 17.1868 21.077C18.3668 20.908 19.0098 20.593 19.4398 20.076C19.8698 19.558 20.0608 18.868 20.0098 17.676C19.9558 16.465 19.6608 14.881 19.2448 12.664C18.9488 11.084 18.7388 9.968 18.4708 9.127C18.2088 8.305 17.9188 7.834 17.5148 7.499C17.1108 7.164 16.5948 6.965 15.7388 6.859C14.8628 6.751 13.7258 6.75 12.1188 6.75H11.3988C9.79182 6.75 8.65482 6.751 7.77882 6.86Z" fill="white"/>
<path id="Vector 386" d="M8 12.5L10.5 15.5L15 10" stroke="white"/>
</g>
</g>
</svg>
