<svg width="24" height="21" viewBox="0 0 24 21" fill="none" xmlns="http://www.w3.org/2000/svg">
<path id="Vector" d="M8.914 0L11.914 3L14.914 0L23.828 8.914L11.914 20.828L0 8.914L8.914 0ZM10.5 4.414L8.914 2.828L2.828 8.914L11.914 18L12.868 17.046L10.5 14.677L11.914 13.264L14.282 15.633L15.237 14.678L12.868 12.31L14.282 10.896L16.651 13.264L18 11.915L14.914 8.828L11.914 11.828L7.5 7.414L10.5 4.414ZM19.414 10.5L21 8.914L14.914 2.828L10.328 7.414L11.914 9L14.914 6L19.414 10.5Z" fill="white"/>
</svg>
