<svg width="19" height="19" viewBox="0 0 19 19" fill="none" xmlns="http://www.w3.org/2000/svg">
<g id="akar-icons:edit" clip-path="url(#clip0_13923_2147)">
<g id="Group">
<path id="Vector" d="M13.0367 6.6562L14.7135 8.33215M14.115 5.17974L9.58108 9.71361C9.34682 9.94755 9.18705 10.2456 9.12192 10.5702L8.70312 12.6665L10.7995 12.2469C11.124 12.182 11.4217 12.0229 11.656 11.7886L16.1899 7.2547C16.3262 7.11845 16.4342 6.95671 16.508 6.7787C16.5817 6.60069 16.6197 6.40989 16.6197 6.21722C16.6197 6.02454 16.5817 5.83375 16.508 5.65574C16.4342 5.47773 16.3262 5.31598 16.1899 5.17974C16.0537 5.04349 15.8919 4.93542 15.7139 4.86169C15.5359 4.78795 15.3451 4.75 15.1524 4.75C14.9598 4.75 14.769 4.78795 14.591 4.86169C14.4129 4.93542 14.2512 5.04349 14.115 5.17974Z" stroke="#343434" stroke-width="2" stroke-linecap="round" stroke-linejoin="round"/>
<path id="Vector_2" d="M15.0391 14.2507V16.6257C15.0391 17.0456 14.8722 17.4483 14.5753 17.7452C14.2784 18.0422 13.8757 18.209 13.4557 18.209H4.7474C4.32747 18.209 3.92474 18.0422 3.62781 17.7452C3.33088 17.4483 3.16406 17.0456 3.16406 16.6257V7.91732C3.16406 7.49739 3.33088 7.09466 3.62781 6.79773C3.92474 6.5008 4.32747 6.33398 4.7474 6.33398H7.1224" stroke="#343434" stroke-width="2" stroke-linecap="round" stroke-linejoin="round"/>
</g>
</g>
<defs>
<clipPath id="clip0_13923_2147">
<rect width="19" height="19" fill="white"/>
</clipPath>
</defs>
</svg>
