<svg width="25" height="25" viewBox="0 0 25 25" fill="none" xmlns="http://www.w3.org/2000/svg">
<g id="material-symbols:report-outline">
<path id="Vector" d="M12.5 17.7083C12.7951 17.7083 13.0427 17.6083 13.2427 17.4083C13.4427 17.2083 13.5424 16.9611 13.5417 16.6667C13.5417 16.3715 13.4417 16.124 13.2417 15.924C13.0417 15.724 12.7944 15.6243 12.5 15.625C12.2049 15.625 11.9573 15.725 11.7573 15.925C11.5573 16.125 11.4576 16.3722 11.4583 16.6667C11.4583 16.9618 11.5583 17.2094 11.7583 17.4094C11.9583 17.6094 12.2056 17.709 12.5 17.7083ZM11.4583 13.5417H13.5417V7.29167H11.4583V13.5417ZM8.59375 21.875L3.125 16.4062V8.59375L8.59375 3.125H16.4062L21.875 8.59375V16.4062L16.4062 21.875H8.59375ZM9.47917 19.7917H15.5208L19.7917 15.5208V9.47917L15.5208 5.20833H9.47917L5.20833 9.47917V15.5208L9.47917 19.7917Z" fill="white"/>
</g>
</svg>
