<svg width="16" height="16" viewBox="0 0 16 16" fill="none" xmlns="http://www.w3.org/2000/svg">
<g id="ri:search-line">
<path id="Vector" d="M12.0233 11.0777L14.8786 13.9323L13.9353 14.8757L11.0806 12.0203C10.0184 12.8718 8.69727 13.3349 7.33594 13.333C4.02394 13.333 1.33594 10.645 1.33594 7.33301C1.33594 4.02101 4.02394 1.33301 7.33594 1.33301C10.6479 1.33301 13.3359 4.02101 13.3359 7.33301C13.3379 8.69434 12.8748 10.0155 12.0233 11.0777ZM10.6859 10.583C11.532 9.71293 12.0045 8.54663 12.0026 7.33301C12.0026 4.75501 9.91394 2.66634 7.33594 2.66634C4.75794 2.66634 2.66927 4.75501 2.66927 7.33301C2.66927 9.91101 4.75794 11.9997 7.33594 11.9997C8.54956 12.0016 9.71586 11.5291 10.5859 10.683L10.6859 10.583Z" fill="#95989A"/>
</g>
</svg>
