<svg width="23" height="23" viewBox="0 0 23 23" fill="none" xmlns="http://www.w3.org/2000/svg">
<g id="ant-design:setting-filled">
<path id="Vector" d="M11.5132 8.7731C10.8416 8.7731 10.2127 9.03364 9.73652 9.50981C9.26259 9.98599 8.9998 10.6149 8.9998 11.2865C8.9998 11.9581 9.26259 12.587 9.73652 13.0631C10.2127 13.5371 10.8416 13.7999 11.5132 13.7999C12.1848 13.7999 12.8137 13.5371 13.2898 13.0631C13.7638 12.587 14.0266 11.9581 14.0266 11.2865C14.0266 10.6149 13.7638 9.98599 13.2898 9.50981C13.0573 9.27545 12.7804 9.08964 12.4754 8.96316C12.1704 8.83669 11.8434 8.77209 11.5132 8.7731ZM20.7738 14.0626L19.3049 12.8071C19.3745 12.3803 19.4104 11.9446 19.4104 11.5111C19.4104 11.0776 19.3745 10.6396 19.3049 10.2151L20.7738 8.95952C20.8848 8.86453 20.9642 8.738 21.0015 8.59677C21.0388 8.45555 21.0323 8.30631 20.9827 8.1689L20.9625 8.1105C20.5582 6.98002 19.9525 5.93214 19.1746 5.01763L19.1342 4.97046C19.0397 4.85939 18.9138 4.77956 18.7731 4.74146C18.6324 4.70337 18.4834 4.70882 18.3458 4.75708L16.522 5.4062C15.8481 4.85366 15.0979 4.41792 14.2849 4.1147L13.9322 2.20776C13.9056 2.06411 13.8359 1.93195 13.7324 1.82884C13.6289 1.72574 13.4965 1.65656 13.3527 1.63052L13.2921 1.61929C12.1241 1.40815 10.8933 1.40815 9.72529 1.61929L9.66465 1.63052C9.52089 1.65656 9.38846 1.72574 9.28495 1.82884C9.18144 1.93195 9.11176 2.06411 9.08515 2.20776L8.73027 4.12368C7.92488 4.42932 7.17461 4.86401 6.50888 5.41069L4.67158 4.75708C4.53404 4.70843 4.38496 4.70279 4.24414 4.74091C4.10331 4.77902 3.97743 4.85908 3.8832 4.97046L3.84277 5.01763C3.06628 5.93311 2.46068 6.98073 2.05488 8.1105L2.03466 8.1689C1.93359 8.44966 2.01669 8.76411 2.24355 8.95952L3.73046 10.2286C3.66084 10.6508 3.62714 11.0821 3.62714 11.5088C3.62714 11.9401 3.66084 12.3713 3.73046 12.7891L2.24804 14.0582C2.13708 14.1532 2.05766 14.2797 2.02034 14.4209C1.98303 14.5621 1.98959 14.7114 2.03916 14.8488L2.05937 14.9072C2.46591 16.037 3.06562 17.0814 3.84726 18L3.88769 18.0472C3.98215 18.1583 4.10804 18.2381 4.24878 18.2762C4.38951 18.3143 4.53849 18.3089 4.67607 18.2606L6.51337 17.607C7.18271 18.1573 7.92841 18.593 8.73476 18.894L9.08964 20.8099C9.11625 20.9536 9.18594 21.0857 9.28944 21.1888C9.39295 21.2919 9.52538 21.3611 9.66914 21.3872L9.72978 21.3984C10.9092 21.6107 12.1171 21.6107 13.2966 21.3984L13.3572 21.3872C13.501 21.3611 13.6334 21.2919 13.7369 21.1888C13.8404 21.0857 13.9101 20.9536 13.9367 20.8099L14.2894 18.903C15.1024 18.5975 15.8526 18.164 16.5265 17.6115L18.3503 18.2606C18.4878 18.3092 18.6369 18.3149 18.7777 18.2768C18.9186 18.2387 19.0444 18.1586 19.1387 18.0472L19.1791 18C19.9607 17.0769 20.5604 16.037 20.967 14.9072L20.9872 14.8488C21.0838 14.5703 21.0007 14.2581 20.7738 14.0626ZM11.5132 15.2351C9.33222 15.2351 7.56455 13.4674 7.56455 11.2865C7.56455 9.10552 9.33222 7.33784 11.5132 7.33784C13.6941 7.33784 15.4618 9.10552 15.4618 11.2865C15.4618 13.4674 13.6941 15.2351 11.5132 15.2351Z" fill="#5AB344"/>
</g>
</svg>
