<svg width="28" height="28" viewBox="0 0 28 28" fill="none" xmlns="http://www.w3.org/2000/svg">
<g id="tabler:users-plus">
<path id="Vector" d="M3.5 24.5V22.1667C3.5 20.929 3.99167 19.742 4.86683 18.8668C5.742 17.9917 6.92899 17.5 8.16667 17.5H12.8333C13.9533 17.5 14.98 17.8943 15.785 18.5512M18.6667 3.65167C19.6705 3.90868 20.5602 4.49248 21.1956 5.31103C21.8309 6.12957 22.1758 7.1363 22.1758 8.1725C22.1758 9.2087 21.8309 10.2154 21.1956 11.034C20.5602 11.8525 19.6705 12.4363 18.6667 12.6933M18.6667 22.1667H25.6667M22.1667 18.6667V25.6667M5.83333 8.16667C5.83333 9.40434 6.325 10.5913 7.20017 11.4665C8.07534 12.3417 9.26232 12.8333 10.5 12.8333C11.7377 12.8333 12.9247 12.3417 13.7998 11.4665C14.675 10.5913 15.1667 9.40434 15.1667 8.16667C15.1667 6.92899 14.675 5.742 13.7998 4.86683C12.9247 3.99167 11.7377 3.5 10.5 3.5C9.26232 3.5 8.07534 3.99167 7.20017 4.86683C6.325 5.742 5.83333 6.92899 5.83333 8.16667Z" stroke="white" stroke-width="2" stroke-linecap="round" stroke-linejoin="round"/>
</g>
</svg>
