<svg width="22" height="22" viewBox="0 0 22 22" fill="none" xmlns="http://www.w3.org/2000/svg">
<g id="mdi:cart-outline">
<path id="Vector" d="M15.5832 16.4999C16.0694 16.4999 16.5357 16.6931 16.8795 17.0369C17.2234 17.3807 17.4165 17.847 17.4165 18.3333C17.4165 18.8195 17.2234 19.2858 16.8795 19.6296C16.5357 19.9734 16.0694 20.1666 15.5832 20.1666C15.0969 20.1666 14.6306 19.9734 14.2868 19.6296C13.943 19.2858 13.7498 18.8195 13.7498 18.3333C13.7498 17.3158 14.5657 16.4999 15.5832 16.4999ZM0.916504 1.83325H3.914L4.77567 3.66659H18.3332C18.5763 3.66659 18.8094 3.76316 18.9814 3.93507C19.1533 4.10698 19.2498 4.34014 19.2498 4.58325C19.2498 4.73909 19.204 4.89492 19.1398 5.04159L15.8582 10.9724C15.5465 11.5316 14.9415 11.9166 14.254 11.9166H7.42484L6.59984 13.4108L6.57234 13.5208C6.57234 13.5815 6.59648 13.6398 6.63946 13.6828C6.68244 13.7258 6.74073 13.7499 6.8015 13.7499H17.4165V15.5833H6.4165C5.93027 15.5833 5.46396 15.3901 5.12014 15.0463C4.77632 14.7025 4.58317 14.2361 4.58317 13.7499C4.58317 13.4291 4.66567 13.1266 4.80317 12.8699L6.04984 10.6241L2.74984 3.66659H0.916504V1.83325ZM6.4165 16.4999C6.90273 16.4999 7.36905 16.6931 7.71287 17.0369C8.05668 17.3807 8.24984 17.847 8.24984 18.3333C8.24984 18.8195 8.05668 19.2858 7.71287 19.6296C7.36905 19.9734 6.90273 20.1666 6.4165 20.1666C5.93027 20.1666 5.46396 19.9734 5.12014 19.6296C4.77632 19.2858 4.58317 18.8195 4.58317 18.3333C4.58317 17.3158 5.399 16.4999 6.4165 16.4999ZM14.6665 10.0833L17.2148 5.49992H5.62817L7.7915 10.0833H14.6665Z" fill="#707070"/>
</g>
</svg>
