<svg width="17" height="21" viewBox="0 0 17 21" fill="none" xmlns="http://www.w3.org/2000/svg">
<path id="Vector" d="M7.90795 20.4849V17.3218C3.50586 17.0933 0 13.4381 0 8.98327C0 4.37908 3.7431 0.635986 8.34728 0.635986C12.9515 0.635986 16.6946 4.37908 16.6946 8.98327C16.6946 13.3326 13.672 17.7084 9.16444 19.8787L7.90795 20.4849ZM8.34728 2.39331C4.70962 2.39331 1.75732 5.34561 1.75732 8.98327C1.75732 12.6209 4.70962 15.5732 8.34728 15.5732H9.66527V17.5941C12.8636 15.5732 14.9372 12.2519 14.9372 8.98327C14.9372 5.34561 11.9849 2.39331 8.34728 2.39331ZM7.46862 12.4979H9.22594V14.2552H7.46862V12.4979ZM9.22594 11.1799H7.46862C7.46862 8.32427 10.1046 8.54394 10.1046 6.78661C10.1046 5.82009 9.31381 5.02929 8.34728 5.02929C7.38075 5.02929 6.58996 5.82009 6.58996 6.78661H4.83264C4.83264 4.84477 6.40544 3.27197 8.34728 3.27197C10.2891 3.27197 11.8619 4.84477 11.8619 6.78661C11.8619 8.98327 9.22594 9.20293 9.22594 11.1799Z" fill="#707070"/>
</svg>
