<svg width="23" height="23" viewBox="0 0 23 23" fill="none" xmlns="http://www.w3.org/2000/svg">
<g id="fluent:card-ui-24-regular">
<path id="Vector" d="M5.03158 3.83325C4.20554 3.83325 3.41333 4.16139 2.82923 4.74549C2.24513 5.32959 1.91699 6.1218 1.91699 6.94784V16.052C1.91699 16.878 2.24513 17.6702 2.82923 18.2543C3.41333 18.8384 4.20554 19.1666 5.03158 19.1666H17.9691C18.3781 19.1666 18.7831 19.086 19.161 18.9295C19.5389 18.773 19.8822 18.5436 20.1714 18.2543C20.4606 17.9651 20.6901 17.6218 20.8466 17.2439C21.0031 16.866 21.0837 16.461 21.0837 16.052V6.94784C21.0837 6.53882 21.0031 6.13381 20.8466 5.75594C20.6901 5.37806 20.4606 5.03471 20.1714 4.74549C19.8822 4.45628 19.5389 4.22686 19.161 4.07034C18.7831 3.91381 18.3781 3.83325 17.9691 3.83325H5.03158ZM3.35449 6.94784C3.35449 6.02209 4.10583 5.27075 5.03158 5.27075H17.9691C18.8948 5.27075 19.6462 6.02209 19.6462 6.94784V16.052C19.6462 16.4968 19.4695 16.9234 19.155 17.2379C18.8404 17.5524 18.4139 17.7291 17.9691 17.7291H5.03158C4.58679 17.7291 4.16021 17.5524 3.8457 17.2379C3.53118 16.9234 3.35449 16.4968 3.35449 16.052V6.94784ZM4.79199 7.427C4.79199 7.23638 4.86772 7.05356 5.00251 6.91877C5.1373 6.78398 5.32012 6.70825 5.51074 6.70825H10.7816C10.9722 6.70825 11.155 6.78398 11.2898 6.91877C11.4246 7.05356 11.5003 7.23638 11.5003 7.427C11.5003 7.61763 11.4246 7.80044 11.2898 7.93524C11.155 8.07003 10.9722 8.14575 10.7816 8.14575H5.51074C5.32012 8.14575 5.1373 8.07003 5.00251 7.93524C4.86772 7.80044 4.79199 7.61763 4.79199 7.427ZM5.75033 12.4583C5.49616 12.4583 5.2524 12.5592 5.07268 12.7389C4.89296 12.9187 4.79199 13.1624 4.79199 13.4166V15.3333C4.79199 15.5874 4.89296 15.8312 5.07268 16.0109C5.2524 16.1906 5.49616 16.2916 5.75033 16.2916H12.4587C12.7128 16.2916 12.9566 16.1906 13.1363 16.0109C13.316 15.8312 13.417 15.5874 13.417 15.3333V13.4166C13.417 13.1624 13.316 12.9187 13.1363 12.7389C12.9566 12.5592 12.7128 12.4583 12.4587 12.4583H5.75033ZM4.79199 9.82284C4.79199 9.63221 4.86772 9.4494 5.00251 9.3146C5.1373 9.17981 5.32012 9.10409 5.51074 9.10409H15.5732C15.7639 9.10409 15.9467 9.17981 16.0815 9.3146C16.2163 9.4494 16.292 9.63221 16.292 9.82284C16.292 10.0135 16.2163 10.1963 16.0815 10.3311C15.9467 10.4659 15.7639 10.5416 15.5732 10.5416H5.51074C5.32012 10.5416 5.1373 10.4659 5.00251 10.3311C4.86772 10.1963 4.79199 10.0135 4.79199 9.82284Z" fill="#707070"/>
</g>
</svg>
