<svg width="18" height="18" viewBox="0 0 18 18" fill="none" xmlns="http://www.w3.org/2000/svg">
<g id="ph:sign-in-bold">
<path id="Vector" d="M6.92204 11.4141L4.27862 8.68036C4.12964 8.52629 4.04797 8.31935 4.05157 8.10506C4.05517 7.89077 4.14375 7.68669 4.29782 7.53771C4.45189 7.38873 4.65883 7.30706 4.87312 7.31066C5.08741 7.31426 5.29149 7.40284 5.44047 7.55691L6.72845 8.89027L6.82217 3.31146C6.82577 3.09754 6.91419 2.89381 7.068 2.74509C7.2218 2.59637 7.42838 2.51484 7.6423 2.51843C7.85622 2.52202 8.05995 2.61045 8.20867 2.76425C8.35739 2.91806 8.43892 3.12464 8.43533 3.33856L8.34161 8.91737L9.67497 7.62939C9.75126 7.55562 9.84133 7.4976 9.94004 7.45865C10.0388 7.41969 10.1442 7.40056 10.2503 7.40234C10.4646 7.40594 10.6686 7.49452 10.8176 7.64859C10.9666 7.80266 11.0483 8.0096 11.0447 8.22389C11.0411 8.43818 10.9525 8.64226 10.7984 8.79124L8.06467 11.4347C7.98839 11.5085 7.89827 11.5666 7.7995 11.6055C7.70073 11.6445 7.59525 11.6635 7.48909 11.6616C7.38294 11.6597 7.2782 11.6369 7.1809 11.5944C7.08359 11.5519 6.99562 11.4907 6.92204 11.4141ZM14.1605 14.73L14.2238 10.966C14.2273 10.7521 14.1458 10.5455 13.9971 10.3917C13.8484 10.2379 13.6446 10.1494 13.4307 10.1458C13.2168 10.1422 13.0102 10.2238 12.8564 10.3725C12.7026 10.5212 12.6142 10.725 12.6106 10.9389L12.5519 14.434L2.33525 14.2624L2.39397 10.7672C2.39756 10.5533 2.31603 10.3467 2.16731 10.1929C2.01859 10.0391 1.81486 9.9507 1.60094 9.94711C1.38702 9.94351 1.18044 10.025 1.02664 10.1738C0.872834 10.3225 0.784408 10.5262 0.780814 10.7401L0.71758 14.5042C0.71159 14.8607 0.847477 15.205 1.09535 15.4613C1.34321 15.7177 1.68276 15.865 2.03929 15.871L12.7936 16.0517C13.1502 16.0577 13.4945 15.9218 13.7508 15.6739C14.0072 15.4261 14.1545 15.0865 14.1605 14.73Z" fill="#4A4A4A"/>
</g>
</svg>
