<svg width="18" height="18" viewBox="0 0 18 18" fill="none" xmlns="http://www.w3.org/2000/svg">
<g id="ph:sign-in-bold">
<path id="Vector" d="M10.4641 9.46796L7.77518 12.1569C7.62363 12.3085 7.41809 12.3936 7.20377 12.3936C6.98946 12.3936 6.78392 12.3085 6.63237 12.1569C6.48082 12.0054 6.39569 11.7998 6.39569 11.5855C6.39569 11.3712 6.48082 11.1657 6.63237 11.0141L7.94391 9.70391H2.36431C2.15036 9.70391 1.94517 9.61892 1.79389 9.46764C1.64261 9.31635 1.55762 9.11117 1.55762 8.89722C1.55762 8.68327 1.64261 8.47809 1.79389 8.32681C1.94517 8.17552 2.15036 8.09053 2.36431 8.09053H7.94391L6.63371 6.77899C6.55868 6.70395 6.49915 6.61487 6.45854 6.51682C6.41793 6.41878 6.39703 6.3137 6.39703 6.20758C6.39703 5.99326 6.48217 5.78772 6.63371 5.63618C6.78526 5.48463 6.9908 5.39949 7.20512 5.39949C7.41944 5.39949 7.62498 5.48463 7.77653 5.63618L10.4655 8.32514C10.5406 8.40018 10.6002 8.4893 10.6408 8.5874C10.6814 8.6855 10.7022 8.79066 10.7021 8.89683C10.702 9.003 10.6809 9.1081 10.64 9.20611C10.5992 9.30412 10.5394 9.3931 10.4641 9.46796ZM13.658 2.1748H9.89341C9.67947 2.1748 9.47428 2.2598 9.323 2.41108C9.17171 2.56236 9.08672 2.76755 9.08672 2.98149C9.08672 3.19544 9.17171 3.40063 9.323 3.55191C9.47428 3.70319 9.67947 3.78818 9.89341 3.78818H13.3891V14.0063H9.89341C9.67947 14.0063 9.47428 14.0912 9.323 14.2425C9.17171 14.3938 9.08672 14.599 9.08672 14.8129C9.08672 15.0269 9.17171 15.2321 9.323 15.3834C9.47428 15.5346 9.67947 15.6196 9.89341 15.6196H13.658C14.0145 15.6196 14.3565 15.478 14.6087 15.2258C14.8608 14.9737 15.0025 14.6317 15.0025 14.2752V3.51929C15.0025 3.16271 14.8608 2.82073 14.6087 2.56859C14.3565 2.31646 14.0145 2.1748 13.658 2.1748Z" fill="white"/>
</g>
</svg>
